<?xml version="1.0" encoding="UTF-8" standalone="no"?>
<!-- Created with Inkscape (http://www.inkscape.org/) -->

<svg
   xmlns:dc="http://purl.org/dc/elements/1.1/"
   xmlns:cc="http://creativecommons.org/ns#"
   xmlns:rdf="http://www.w3.org/1999/02/22-rdf-syntax-ns#"
   xmlns:svg="http://www.w3.org/2000/svg"
   xmlns="http://www.w3.org/2000/svg"
   xmlns:sodipodi="http://sodipodi.sourceforge.net/DTD/sodipodi-0.dtd"
   xmlns:inkscape="http://www.inkscape.org/namespaces/inkscape"
   width="618.5318"
   height="639.57635"
   id="svg2"
   version="1.1"
   inkscape:version="0.48.4 r9939"
   sodipodi:docname="octopus.svg"
   style="enable-background:new">
  <defs
     id="defs4" />
  <sodipodi:namedview
     id="base"
     pagecolor="#ffffff"
     bordercolor="#666666"
     borderopacity="1.0"
     inkscape:pageopacity="0.0"
     inkscape:pageshadow="2"
     inkscape:zoom="0.7"
     inkscape:cx="303.45076"
     inkscape:cy="252.98642"
     inkscape:document-units="px"
     inkscape:current-layer="layer2"
     showgrid="false"
     inkscape:window-width="911"
     inkscape:window-height="1041"
     inkscape:window-x="64"
     inkscape:window-y="0"
     inkscape:window-maximized="0"
     showguides="true"
     inkscape:guide-bbox="true"
     fit-margin-top="0"
     fit-margin-left="0"
     fit-margin-right="0"
     fit-margin-bottom="0" />
  <metadata
     id="metadata7">
    <rdf:RDF>
      <cc:Work
         rdf:about="">
        <dc:format>image/svg+xml</dc:format>
        <dc:type
           rdf:resource="http://purl.org/dc/dcmitype/StillImage" />
        <dc:title />
      </cc:Work>
    </rdf:RDF>
  </metadata>
  <g
     inkscape:groupmode="layer"
     id="layer2"
     inkscape:label="Layer"
     style="display:inline"
     transform="translate(-164.73269,-21.351253)">
    <g
       id="g3946">
      <path
         transform="matrix(1.0801706,0,0,1.0801706,-78.431521,-806.35473)"
         d="m 777.14285,1092.6659 c 0,146.7499 -118.96434,265.7143 -265.71429,265.7143 -146.74995,0 -265.7143,-118.9644 -265.7143,-265.7143 0,-146.74996 118.96435,-265.7143 265.7143,-265.7143 146.74995,0 265.71429,118.96434 265.71429,265.7143 z"
         sodipodi:ry="265.71429"
         sodipodi:rx="265.71429"
         sodipodi:cy="1092.6659"
         sodipodi:cx="511.42856"
         id="path5593"
         style="fill:#dcdaef;fill-opacity:1;stroke:none"
         sodipodi:type="arc" />
      <g
         transform="translate(-21.428554,-0.26967018)"
         id="g5605">
        <text
           xml:space="preserve"
           style="font-size:45.09020996px;font-style:normal;font-variant:normal;font-weight:normal;font-stretch:normal;line-height:125%;letter-spacing:0px;word-spacing:0px;fill:#986196;fill-opacity:1;stroke:none;font-family:JuneBug;-inkscape-font-specification:JuneBug"
           x="351.18124"
           y="614.91205"
           id="text4079"
           sodipodi:linespacing="125%"><tspan
             sodipodi:role="line"
             id="tspan4081"
             x="351.18124"
             y="614.91205">OCTOPUS</tspan></text>
        <path
           style="fill:#e3b9e1;fill-opacity:1;stroke:none"
           d="m 355.55011,603.00695 c -0.7112,0 -1.46577,-7.85222 -0.10477,-10.67358 3.99574,-8.28313 8.78887,-10.7536 16.7612,-11.4718 5.27939,-0.4756 8.76209,1.94964 10.7868,3.38629 3.24614,2.30333 4.76064,4.5906 5.64047,9.85341 0.48068,2.87518 -0.43116,9.65721 -1.20121,9.27219 -0.9602,-0.48009 -8.21946,0.58728 -8.80966,-0.003 -1.4146,-1.41456 -2.79814,-4.5984 -5.05525,-7.32375 -3.21217,-3.87855 -6.66157,-3.456 -7.88286,-1.62081 -1.23618,1.8576 -0.49227,4.57322 -0.79132,8.8335"
           id="path4211"
           inkscape:connector-curvature="0"
           sodipodi:nodetypes="csssscsssc" />
        <path
           style="fill:#e3b9e1;fill-opacity:1;stroke:none"
           d="m 426.04981,582.69446 c 0.005,3.14 -3.74312,11.05997 -5.71672,12.04136 -1.54689,-1.08983 -4.9602,-2.09827 -9.00461,1.27161 -2.40724,2.00576 -2.6309,7.28851 -2.6309,7.28851 l -8.7792,0.17383 c 0,0 -2.49804,-4.32548 -1.5781,-8.79511 0.66176,-3.21525 2.79005,-6.28655 5.69612,-8.57114 6.09293,-4.78991 12.39755,-5.0117 22.01341,-3.40906 z"
           id="path4219"
           inkscape:connector-curvature="0"
           sodipodi:nodetypes="ccsccssc" />
        <path
           style="fill:#e3b9e1;fill-opacity:1;stroke:none"
           d="m 527.21405,603.59812 -11.67952,0.16671 c 0,0 -1.39154,-2.48439 -1.66914,-8.37117 -0.0533,-1.13103 -0.90926,-8.79099 2.24767,-12.30504 2.83529,-3.15603 11.31097,-3.11375 18.07999,-2.46559 12.01192,1.15018 18.1644,7.21109 17.96943,15.03306 -0.0596,2.38968 -0.93776,5.43779 -2.89091,7.86832 -3.0338,0.14762 -4.66449,-0.0774 -9.94664,-0.0918 0.16046,-5.28598 -2.18192,-9.33756 -5.50714,-11.25901 -5.89936,-3.40889 -6.42518,9.54947 -6.60374,11.42447 z"
           id="path4221"
           inkscape:connector-curvature="0"
           sodipodi:nodetypes="ccssssccscc" />
        <path
           style="fill:#e3b9e1;fill-opacity:1;stroke:none"
           d="m 573.08717,582.45133 c 0,0 -0.11411,7.04744 0.14937,11.66303 0.24,4.20424 -1.12343,9.03116 -2.43329,9.39699 -2.45017,0.68431 -6.66258,-0.16865 -10.81569,-0.0336 -1.1302,1.13026 -2.95011,-7.1857 -3.0603,-8.7803 -0.32146,-4.65212 0.89953,-11.73493 0.89953,-11.73493 5.56923,-1.77852 10.38113,-1.03257 15.26038,-0.51114 z"
           id="path4227"
           inkscape:connector-curvature="0"
           sodipodi:nodetypes="csccscc" />
        <path
           style="fill:#e3b9e1;fill-opacity:1;stroke:none"
           d="m 596.63809,603.35154 c 0.78071,-3.57145 1.69891,-4.56867 1.69891,-11.16563 0,-3.54998 -0.78408,-8.19977 -0.78408,-8.19977 -5.93675,-1.43304 -10.79152,-0.17125 -15.81897,0.66046 0,0 1.01386,5.56208 1.291,8.82987 0.37534,4.42582 1.35444,6.36617 1.46461,9.36392 4.3657,0.45277 7.75403,0.6426 12.14853,0.51115 z"
           id="path4229"
           inkscape:connector-curvature="0"
           sodipodi:nodetypes="csccscc" />
        <path
           style="fill:#e3b9e1;fill-opacity:1;stroke:none"
           d="m 634.1954,581.61418 0.046,11.4142 c 0,0 -9.45729,-3.02694 -11.59653,-1.94746 -4.94278,2.49417 10.19002,12.61876 10.19002,12.61876 l -12.94892,-0.18184 c 0,0 -2.36588,-3.80521 -3.64928,-4.40642 -5.90923,-2.76816 -13.47333,-4.47039 -11.79883,-11.50609 2.40965,-10.12457 30.03216,-6.76017 29.75751,-5.99115 z"
           id="path4231"
           inkscape:connector-curvature="0"
           sodipodi:nodetypes="ccsccsscc" />
        <path
           style="fill:#e3b9e1;fill-opacity:1;stroke:none"
           d="m 435.28107,580.56757 c -1.54203,4.2102 -2.41116,8.55497 -2.76318,13.00317 3.92893,0.88425 7.79974,1.24547 11.49203,0 -0.27438,0.13719 0.33383,8.35911 1.66191,9.9648 1.1244,0 6.71,0.46515 8.53873,0.21701 1.43629,-2.3105 1.66255,-10.12926 1.39979,-10.18181 0.25492,0.34212 8.13734,1.12541 11.16282,0 0.77157,-2.25946 -1.60236,-12.24487 -1.99386,-12.16657 -9.16746,-0.75208 -18.67143,-1.2648 -29.49824,-0.8366 z"
           id="path4233"
           inkscape:connector-curvature="0"
           sodipodi:nodetypes="ccccccccc" />
        <path
           sodipodi:nodetypes="cssssccssc"
           inkscape:connector-curvature="0"
           id="path4318"
           d="m 474.03225,603.45338 c -0.7112,0 -1.9122,-8.29865 -0.5512,-11.12001 3.99574,-8.28313 8.78887,-10.7536 16.7612,-11.4718 5.27939,-0.4756 8.76209,1.94964 10.7868,3.38629 3.24614,2.30333 4.76064,4.5906 5.64047,9.85341 0.48068,2.87518 1.35455,6.44292 0.13807,9.36147 -0.9602,-0.48009 -8.66588,0.40871 -9.25608,-0.18148 -1.4146,-1.41456 -3.691,-4.50911 -5.94811,-7.23446 -3.21217,-3.87855 -6.66157,-3.456 -7.88286,-1.62081 -1.23618,1.8576 -1.5637,4.93037 -0.25561,8.92279"
           style="fill:#e3b9e1;fill-opacity:1;stroke:none" />
      </g>
      <path
         sodipodi:nodetypes="ssssscs"
         inkscape:connector-curvature="0"
         id="path3943"
         d="m 281.40602,389.05205 c 28.41382,1.46797 66.52922,-10.55815 95.35788,-15.49229 21.42359,-3.66673 53.28927,39.22755 42.93148,18.06182 -2.81864,-5.75978 -41.3642,-44.38048 -47.98224,-44.38048 -43.2801,0 -139.96611,20.10972 -175.36915,-10.03393 -9.49391,-8.08352 -11.92986,-19.58123 -17.40719,-26.57668 0.89119,72.25704 67.01535,76.58986 102.46922,78.42156 z"
         style="fill:#ddacdb;fill-opacity:1;stroke:none" />
      <path
         sodipodi:nodetypes="cssasasssssssssssssc"
         inkscape:connector-curvature="0"
         id="path3941"
         d="m 212.13599,190.58649 c 12.4082,-2.53356 9.51759,-27.48459 14.88508,-44.77616 2.08382,-6.71312 10.21202,-18.73049 13.84172,-21.0599 8.98864,-5.7686 14.08482,-6.43817 19.2192,-2.43986 6.25754,4.87296 8.79629,9.72716 3.40334,23.86453 -11.10017,29.09862 -32.50965,61.88688 -19.19905,89.0808 9.54275,19.49611 39.06678,34.75001 58.26813,27.0579 19.46848,-7.79912 25.88959,-16.51036 29.92077,-24.75495 10.11911,-20.69562 13.1053,-18.28623 24.15574,-7.49373 7.76603,7.58476 12.95155,21.02164 17.71881,36.2082 4.11577,13.11114 9.2922,24.77651 8.90103,39.28662 -0.36591,13.57289 -22.11307,41.16389 -18.51292,39.48604 3.66453,-1.70786 29.98518,-37.65136 31.61635,-39.31798 10.95361,-11.19164 -3.57883,-127.27806 -56.06348,-109.40301 -22.99036,7.82998 -28.38932,36.69337 -49.49747,47.47678 -22.89111,11.69427 -32.18765,-15.80064 -31.06707,-42.58553 0.67246,-16.07379 7.86195,-32.57709 9.3488,-38.43463 4.52166,-17.81335 8.83249,-30.20197 2.52537,-43.09032 -3.49759,-7.14719 -24.9701,-9.67403 -31.81981,-4.12843 -18.31804,14.83053 -30.53476,59.21617 -27.64454,75.02363 z"
         style="fill:#ddacdb;fill-opacity:1;stroke:none" />
      <path
         sodipodi:nodetypes="cssssssscc"
         inkscape:connector-curvature="0"
         id="path3945"
         d="m 200.05283,288.05625 c 0.9102,-14.36781 21.72085,-28.8566 36.69726,-27.85316 30.15309,2.02031 19.42853,32.30236 29.29441,45.45686 6.82216,9.09623 10.12814,9.79918 18.8141,14.14215 3.70566,1.85283 5.83523,3.83475 4.90833,4.85875 -2.59814,2.87035 -19.26797,3.88884 -25.74274,-2.58592 -4.73552,-4.73553 -5.91486,-11.84402 -4.85429,-19.88248 2.34091,-17.74262 -7.39225,-28.96891 -22.86145,-31.23482 -25.17406,-3.68747 -33.48514,28.66213 -33.48514,32.79714 0.701,-2.47122 -2.78899,-13.11321 -2.77048,-15.69852 z"
         style="fill:#ddacdb;fill-opacity:1;stroke:none" />
      <path
         sodipodi:nodetypes="cscc"
         inkscape:connector-curvature="0"
         id="path3963"
         d="m 182.24517,382.83202 c 18.59731,14.32407 5.28745,36.59675 5.05077,43.6891 -0.42782,12.82003 7.9389,31.81324 -6.81854,6.56599 -13.30556,-26.61112 3.43558,-40.24829 1.76777,-50.25509 z"
         style="fill:#ddacdb;fill-opacity:1;stroke:none" />
      <path
         sodipodi:nodetypes="csscssc"
         inkscape:connector-curvature="0"
         id="path3961"
         d="m 191.03761,448.11685 c 18.84323,-3.13064 40.98161,-15.56837 64.47809,-24.96239 16.54312,-6.61402 37.71319,3.4618 50.42983,8.26948 20.56311,7.77413 36.82717,12.02805 55.81092,21.21321 -15.19432,5.3033 -17.50226,10.8513 -52.38743,0.33175 -9.35707,-2.82161 -31.60101,-21.23784 -51.74059,-14.52465 -22.41876,7.47291 -55.31435,22.23118 -66.59082,9.6726 z"
         style="fill:#ddacdb;fill-opacity:1;stroke:none" />
      <path
         sodipodi:nodetypes="csssssssc"
         inkscape:connector-curvature="0"
         id="path3949"
         d="m 544.32218,300.75576 c -0.72875,-20.37323 13.75203,-39.7796 31.5078,-49.53825 10.53878,-5.79216 30.21625,-5.82897 43.82024,2.09446 22.14845,12.90001 28.49646,9.57382 40.2637,7.40046 22.49827,-4.15534 27.73985,-32.57922 23.33683,-41.38524 -1.1193,-2.23861 -10.2614,17.45212 -12.5,18.57142 -4.37051,2.18526 -17.5296,2.12806 -21.78571,0 -14.85086,-7.42543 -63.04039,-25.25377 -78.92858,-20.71428 -37.21412,10.6326 -44.37178,55.58517 -25.71428,83.57143 z"
         style="fill:#ddacdb;fill-opacity:1;stroke:none" />
      <path
         sodipodi:nodetypes="csssssssssssc"
         inkscape:connector-curvature="0"
         id="path3951"
         d="m 547.49455,377.42718 c 8.25095,-19.96135 32.22861,-16.15088 57.52511,-16.71333 16.97735,-0.37748 32.38666,-7.99172 41.3578,-18.12822 20.43865,-23.09365 7.25978,-28.20456 40.69581,-54.63925 14.53931,-11.49485 50.10639,-17.09334 61.79877,-0.89812 12.80175,17.7318 -1.98499,30.93578 -6.74366,45.21177 -0.80815,2.42448 -14.45557,16.97045 -12.24002,14.7549 8.60361,-8.60361 59.9124,-48.34372 47.29334,-67.27232 -13.97959,-20.96937 -69.57463,-30.48113 -93.43911,-16.16244 -13.1367,7.88202 -22.23747,20.21716 -33.33504,31.31473 -9.26343,9.26343 -11.17256,24.78932 -21.71828,31.8198 -22.5807,15.05381 -67.34066,-13.97925 -82.36332,8.55476 -5.57303,8.35951 -1.42314,36.97423 1.1686,42.15772 z"
         style="fill:#ddacdb;fill-opacity:1;stroke:none" />
      <path
         sodipodi:nodetypes="cssssc"
         inkscape:connector-curvature="0"
         id="path3955"
         d="m 504.94559,404.14982 c 6.04143,0.65739 18.13559,0.0588 28.5368,3.78808 12.14904,4.35593 21.0453,10.41775 27.77919,21.21321 5.87914,9.42513 12.03318,46.43746 12.87945,46.71955 15.48671,5.16223 0.26978,-70.4409 -8.58629,-79.29698 -14.79214,-14.79213 -52.24121,0.88179 -60.60915,7.57614 z"
         style="fill:#ddacdb;fill-opacity:1;stroke:none" />
      <path
         sodipodi:nodetypes="ssssscs"
         inkscape:connector-curvature="0"
         id="path3959"
         d="m 653.438,475.87065 c 16.36878,-13.09502 52.79373,-18.16948 66.9226,-4.04061 6.9783,6.9783 23.99235,7.8294 20.75935,9.4459 -11.80917,5.90458 -20.37185,-6.22821 -34.90148,-6.16291 -19.35745,0.087 -39.29004,20.46579 -53.66435,27.65294 -4.11042,2.05521 -37.68599,7.56131 -34.43646,-8.73314 8.56993,-6.353 27.85559,-12.19037 35.32034,-18.16218 z"
         style="fill:#ddacdb;fill-opacity:1;stroke:none" />
      <path
         sodipodi:nodetypes="cscsccssscccsssccssssssssssscsssssssscsssssscscccsscsccsccsccccscssccssscscssccsssscscc"
         inkscape:connector-curvature="0"
         id="path3767"
         d="m 494.7287,205.66212 c -5.71511,18.47285 -8.38954,69.86115 12.88831,59.86449 23.97496,-11.26382 14.30673,-48.82436 46.35716,-59.97959 30.95703,-11.09124 54.16424,4.43603 75.39556,22.05986 26.97125,22.38847 61.8127,-9.92575 33.74274,-36.58136 -23.87705,-20.97375 1.10975,-57.87587 30.4095,-35.4386 19.2177,14.53749 -3.68344,56.08795 -6.06504,21.00758 -2.69109,-39.63907 -41.75705,-20.58611 -14.08029,12.0974 15.87854,18.75101 16.36959,55.08923 -10.40617,64.6163 -28.9911,10.31529 -35.54626,-30.28192 -85.12945,-19.65999 -25.86294,5.57801 -49.08544,45.85477 -31.93399,65.97128 29.34991,32.08835 65.07169,21.06718 88.09354,4.44737 30.56189,-20.27344 45.7224,-63.59178 102.89252,-52.88287 12.09831,2.26621 26.61495,7.56128 36.49445,19.08541 10.59247,12.3558 15.32065,32.65316 0.4877,44.41995 -20.403,16.18545 -57.96844,36.91417 -47.48757,65.17508 12.43998,2.99025 23.94923,10.67777 19.99397,28.25058 -14.6552,-4.1335 -22.36792,-20.09148 -27.24979,-33.38772 -5.05166,-13.75871 -1.62387,-29.21497 13.34898,-39.78494 17.67036,-12.47426 44.4094,-42.32305 19.02693,-57.03681 -36.64527,-21.24259 -88.68144,9.04782 -98.34815,38.55064 -7.76021,23.68419 -35.63653,41.08099 -61.23679,37.51017 -30.49947,-4.25417 -59.67265,16.15 -18.19629,34.60333 27.25509,12.12612 26.72605,40.15431 23.51284,65.12269 -3.66088,28.4471 50.30671,35.42984 63.5541,13.86843 17.29885,-28.15556 41.66129,-27.31686 54.72692,-7.1726 17.97582,27.71466 55.96067,-2.82255 51.42422,-26.96004 -2.27179,-12.08762 11.887,-18.0836 13.35253,-17.29912 2.25662,1.20792 -2.65709,17.27803 -10.04046,24.64548 -5.04668,22.09851 -22.63207,54.55375 -48.59575,34.38767 -31.10855,-24.16212 -51.8247,17.30851 -79.03154,26.06484 -30.46506,9.80499 -81.51653,-17.03536 -74.10071,-51.80419 6.80727,-31.91561 -30.81838,-72.05567 -43.17755,-28.94993 -9.14799,31.90592 -2.34091,92.32958 35.84898,94.85403 26.19466,1.73154 34.10425,-16.92711 67.57107,-6.25469 11.49589,3.66598 24.65225,12.01874 35.37053,22.24242 13.88087,13.24033 24.68345,31.76928 40.46504,23.46705 10.65834,-5.60702 31.34329,-26.35236 48.87523,-6.16522 -20.92837,1.71908 -38.84183,13.43547 -60.86091,14.08931 -13.72008,0.40741 -23.91816,-7.87172 -36.28096,-14.99114 -18.71009,-10.77468 -42.65157,-20.68267 -61.15066,-12.11131 -33.66764,15.59957 -72.46128,4.5049 -89.52229,-28.34912 -13.74224,-26.46316 -10.83,-39.28978 -19.25172,-76.06426 -9.53832,-41.65024 -27.56332,30.93716 -28.63843,51.16543 -1.69152,31.82598 -17.84172,73.4126 -54.73215,72.78537 -28.69796,-0.71309 -44.80243,-32.14485 -75.26715,-32.30453 -32.06339,-0.16806 -18.1974,41.6332 -45.09082,44.0301 -3.6111,-22.17361 -2.47056,-37.47887 26.34087,-45.12911 20.92158,-19.637 47.03862,-4.82123 67.34168,4.15627 31.51581,13.33559 60.81691,-23.7094 53.94378,-51.89299 -12.81455,-52.54667 3.77795,-62.26778 -6.8496,-59.34665 -28.31445,7.78265 -40.78204,38.90114 -73.67646,39.37516 -37.01544,1.55902 -65.813,-39.30068 -102.61747,-21.25201 -23.1343,11.3449 -58.13222,36.067 -71.46094,-2.73625 -15.36285,-9.64835 -16.29866,-39.81206 8.16974,-47.56785 6.46785,20.98685 -1.1741,29.28805 -1.01901,39.68739 0.27895,18.7054 24.39959,30.48129 40.95277,11.23589 15.64531,-27.93099 48.77798,-28.79678 76.18237,-19.40853 29.73229,13.85807 60.78597,1.24092 83.40718,-22.41154 15.6954,-16.41092 13.95784,-40.52542 -11.76372,-30.24722 -48.42696,16.41105 -102.70812,19.60401 -151.2076,1.9526 -29.35119,-12.37975 -52.55652,-43.66682 -37.94875,-75.98578 10.83624,-26.73051 44.85473,-52.96337 71.70179,-34.33825 11.8968,10.5995 8.01756,30.82427 11.31639,44.83266 2.43121,10.32408 20.75093,10.19252 24.76811,25.59305 -22.71386,3.41474 -27.98118,-11.23719 -28.99907,-30.95687 -0.76955,-14.90833 -8.13498,-27.86502 -24.25241,-29.19398 -41.77757,-3.44475 -45.86281,57.1237 -6.9629,65.18343 27.14115,8.88139 56.97376,5.17276 85.04546,2.78639 26.25501,-5.95512 80.69933,-10.32614 74.74921,-40.91276 -4.84134,-24.88694 -12.5194,-64.86576 -38.64379,-79.4805 -26.44768,-14.79559 -26.05774,46.53862 -61.78038,41.39152 -35.85227,-5.16578 -43.74729,-44.39075 -30.07963,-71.47085 6.72518,-19.89224 23.33542,-72.94593 -13.05287,-62.2323 -27.97148,8.23552 -21.77949,44.84865 -34.14584,71.37446 -8.08092,-13.95045 -9.29626,-25.30754 3.17042,-38.37569 5.02573,-5.26819 8.88701,-19.04796 11.45606,-24.11792 17.27049,-34.08294 68.53577,-15.92811 51.60079,19.01336 -7.00214,25.54658 -30.20214,57.55706 -5.76752,80.58085 40.57587,25.17311 35.01927,-40.59184 58.6729,-55.02215 28.892,-17.62608 57.19479,14.85275 64.27666,41.93663 2.96619,11.34389 12.09004,35.46256 22.81322,48.06015 8.49184,9.9762 19.07176,12.30469 24.98418,-2.92242 14.67794,-37.8022 -8.88463,-75.2291 -15.81483,-113.37519 -11.66583,-40.23233 -4.98855,-91.45072 27.03623,-118.8372 29.31544,-25.0695602 62.33468,42.68789 60.27441,71.40489 -0.13385,36.68642 -9.93687,72.4961 -20.11963,107.44508 z"
         style="fill:#986196;fill-opacity:1;stroke:none" />
      <path
         sodipodi:nodetypes="ssssssssssssssssssssssssssssssasssssssssss"
         inkscape:connector-curvature="0"
         id="path3965"
         d="m 377.07462,231.40939 c 11.97888,28.72564 22.45163,51.81674 16.56726,72.38128 -5.45375,19.05967 -24.19903,21.32913 -43.81349,26.02244 -7.82165,1.87155 -41.57493,6.86773 -48.17602,7.16156 -7.23422,0.32202 -7.61207,15.56122 -0.50506,21.21321 17.64021,14.02871 40.83268,0.37404 50.59046,-1.39045 27.27988,-4.93297 34.26026,-8.9446 43.10118,0.88538 13.51,15.02141 3.66024,31.69599 -15.65735,48.23478 -8.10163,6.93621 -31.15639,10.86994 -33.84013,22.47589 -2.25756,9.76291 -0.13961,16.82221 9.59645,19.19291 15.4942,3.77279 20.82723,-10.34919 40.13622,-23.90219 12.35939,-8.67506 23.98321,-20.33099 33.09985,-15.49376 7.51746,3.98871 3.94907,9.55324 3.00909,26.49806 -1.17482,21.17838 0.81671,36.46426 3.55693,45.72784 1.45513,4.91914 9.42681,11.17648 13.63706,7.07107 10.78983,-10.52106 5.33861,-30.0089 11.20909,-51.56252 4.2905,-15.75276 8.67984,-25.51092 22.42182,-25.08652 8.45077,0.26099 13.13078,9.3641 12.58163,32.44609 -0.63192,26.56119 -1.53092,42.50853 15.91185,57.84001 4.533,3.98432 13.11255,-3.10155 12.37437,-9.09137 -2.88901,-23.4425 -7.04568,-22.53872 -7.55689,-47.36929 -0.38408,-18.65581 6.6559,-36.05456 11.99362,-42.09484 4.51506,-5.10934 15.68945,-9.04766 28.0155,-1.55847 18.59099,11.29571 14.08142,29.34752 25.37901,28.89822 5.01865,-0.19959 6.62171,-11.64521 6.56599,-16.66752 -0.24184,-21.79976 -39.25953,-27.23693 -39.22699,-44.68873 0.01,-5.10725 6.39619,-13.93839 28.74831,-18.60649 26.79181,-5.5953 47.51397,1.60163 57.69587,-14.27731 4.68099,-7.30013 4.39884,-13.66437 -3.19851,-17.84574 -12.48029,-6.86879 -24.13682,5.47953 -44.11357,5.65027 -19.60509,0.16756 -35.98244,-4.9502 -44.82845,-18.47677 -8.60114,-13.15215 -8.45772,-30.58664 1.01451,-47.13385 13.72569,-23.97766 38.74289,-21.56756 34.31237,-38.06559 -2.98269,-11.10675 -21.13584,-11.38816 -29.29443,-3.28299 -11.23177,11.15822 -8.95126,14.51247 -17.49335,33.06947 -6.72515,14.60986 -17.95421,27.60466 -27.4151,25.77191 -43.66551,-8.45882 -1.48381,-134.68071 1.11039,-163.10809 5.28181,-57.87842 -68.97089,-68.52053 -69.66026,-2.3267 -0.34974,33.58092 40.2889,115.35634 10.90683,159.38874 -7.44133,11.15169 -17.52106,8.39658 -28.47247,0.66353 -18.0209,-12.72499 -19.15568,-68.08407 -31.94234,-61.23679 -3.5928,1.92395 -11.12068,16.00816 -8.34125,22.67332 z"
         style="fill:#b789b9;fill-opacity:1;stroke:none" />
      <path
         sodipodi:nodetypes="ssscsss"
         inkscape:connector-curvature="0"
         id="path3891"
         d="m 469.71398,25.29039 c -7.88897,-0.9069 1.26242,10.30419 9.46181,18.41038 13.41412,13.26162 20.45383,17.16442 24.7332,40.19391 2.12275,11.42367 5.47586,25.96489 5.47586,25.96489 0,0 3.15389,-21.57287 -2.48573,-40.22802 C 503.16651,57.28452 495.5657,44.6669 489.08805,37.31299 484.13816,31.69352 474.53113,25.84415 469.71399,25.29039 z"
         style="fill:#e3b9e1;fill-opacity:1;stroke:none" />
      <path
         sodipodi:nodetypes="ssss"
         inkscape:connector-curvature="0"
         id="path3893"
         d="m 503.12635,133.79847 c 1.54134,24.81372 8.15838,3.03809 7.74403,-10.07738 -0.21674,-6.86042 -0.44602,-18.93289 -4.59993,-3.59459 -1.65995,6.12938 -3.38806,9.74453 -3.1441,13.67197 z"
         style="fill:#e3b9e1;fill-opacity:1;stroke:none" />
      <path
         sodipodi:nodetypes="csssssc"
         inkscape:connector-curvature="0"
         id="path3947"
         d="m 688.40394,182.10665 c -2.36871,-12.05352 -3.43821,-16.56754 -11.60342,-16.56754 -15.87842,0 2.29822,23.16136 2.29822,32.56871 0,0.35843 -5.9492,-8.38431 -9.29314,-12.84291 -5.52733,-7.36976 -10.96259,-14.45209 -6.09311,-25.5193 3.02572,-6.87677 13.8756,-8.55809 20.09494,-4.47998 5.98384,3.92368 13.17605,16.20138 4.5965,26.84102 z"
         style="fill:#ddacdb;fill-opacity:1;stroke:none" />
      <path
         sodipodi:nodetypes="sccs"
         inkscape:connector-curvature="0"
         id="path3864"
         d="m 345.44475,168.87212 c 17.93988,-1.7171 27.82146,11.0376 36.0729,21.56054 -32.79385,-11.14409 -53.26572,-7.14441 -63.78435,5.9272 7.25445,-22.7765 21.97779,-26.93895 27.71145,-27.48774 z"
         style="fill:#e3b9e1;fill-opacity:1;stroke:none" />
      <path
         sodipodi:nodetypes="csssc"
         inkscape:connector-curvature="0"
         id="path3866"
         d="m 193.39868,286.44158 c -9.49363,12.14825 -14.18336,30.43477 -2.13166,47.00875 17.93455,24.66431 52.68208,28.44053 55.19801,18.37685 0.54356,-2.17424 -23.27093,-5.99587 -38.96704,-26.03799 -11.21366,-14.31854 -11.92085,-27.99013 -14.09931,-39.34761 z"
         style="fill:#e3b9e1;fill-opacity:1;stroke:none" />
      <path
         sodipodi:nodetypes="csc"
         inkscape:connector-curvature="0"
         id="path3868"
         d="m 239.32218,429.32718 c 7.49271,-14.0303 39.515,-0.94357 45.71429,-7.14285 18.02382,-18.02382 -57.82122,-13.68389 -45.71429,7.14285 z"
         style="fill:#e3b9e1;fill-opacity:1;stroke:none" />
      <path
         sodipodi:nodetypes="csssc"
         inkscape:connector-curvature="0"
         id="path3874"
         d="m 582.48122,524.2288 c 5.83064,-12.90741 19.9199,-18.64269 41.52377,-14.32028 18.86073,3.77357 29.48222,15.03672 27.08984,28.49804 -0.51368,2.89031 -9.3089,-7.43478 -29.68714,-11.34161 -20.12848,-3.85894 -35.17266,-0.46163 -38.92647,-2.83615 z"
         style="fill:#e3b9e1;fill-opacity:1;stroke:none" />
      <path
         sodipodi:nodetypes="sscs"
         inkscape:connector-curvature="0"
         id="path3876"
         d="m 685.71486,447.81196 c 18.94014,-3.89093 34.66603,17.94253 25.54468,15.25253 -12.06016,-3.55671 -34.62109,3.02808 -45.71055,10.85543 0.27621,-10.74056 11.66836,-24.3623 20.16587,-26.10796 z"
         style="fill:#e3b9e1;fill-opacity:1;stroke:none" />
      <path
         sodipodi:nodetypes="csssc"
         inkscape:connector-curvature="0"
         id="path3878"
         d="m 686.63836,268.82954 c 12.77396,-12.68852 25.64246,-17.17768 43.21954,-16.82379 21.97669,0.44247 57.6936,23.74249 45.17857,48.03572 -0.58074,1.12729 -3.128,-11.82601 -10.9108,-18.99728 -19.22949,-17.71854 -33.90973,-20.11242 -77.48731,-12.21465 z"
         style="fill:#e3b9e1;fill-opacity:1;stroke:none" />
      <path
         style="fill:#422139;fill-opacity:1;stroke:none;display:inline"
         d="m 506.22708,222.02647 c 0.22796,0.64171 -2.13239,1.32595 -3.18327,1.80839 -5.79431,2.66006 -11.13819,1.89938 -13.71389,1.65924 -5.04943,-0.47077 -0.81419,-3.63595 0.63163,-4.89408 3.55286,-3.09165 12.15235,-0.72162 16.26553,1.42645 z"
         id="path3861"
         inkscape:connector-curvature="0"
         sodipodi:nodetypes="csssc" />
      <path
         style="fill:#422139;fill-opacity:1;stroke:none"
         d="m 503.07366,244.62379 c 0.0847,-1.56372 -12.00489,-0.37253 -17.2903,-0.2076 l 0.16024,5.37333 c 0,0 8.53073,1.75103 12.2879,0.1194 2.19157,-0.95173 4.84215,-5.28513 4.84215,-5.28513 z"
         id="path3863"
         inkscape:connector-curvature="0"
         sodipodi:nodetypes="cccsc" />
      <path
         style="fill:#fcfcff;fill-opacity:1;stroke:none;display:inline"
         d="m 493.12071,249.51567 c -4.96189,0.94109 -11.30759,-1.17516 -12.95428,-5.70235 -3.14054,-8.63423 -2.11403,-16.65544 -1.88176,-22.89693 0.19131,-5.14134 2.14967,-10.9838 8.45514,-10.99352 20.72191,-0.032 18.04196,37.38113 6.3809,39.5928 z"
         id="path3865"
         inkscape:connector-curvature="0"
         sodipodi:nodetypes="sssss" />
      <path
         style="fill:#dcdaef;fill-opacity:1;stroke:none"
         d="m 501.69364,230.32913 c 0,0 -1.14422,-0.0335 -4.42095,0.0541 -0.54658,-2.82822 -1.15574,-6.97129 -5.22639,-6.48537 -4.32701,0.51653 -3.83742,6.76855 -3.83742,6.76855 -3.36495,-0.83555 -7.24183,-0.39139 -9.43552,0.17857 0,0 -0.82143,-8.98611 0.94516,-12.26015 1.72472,-3.19643 4.8744,-4.19189 8.66706,-4.88271 3.22415,-0.58726 6.40492,-0.34552 8.92223,1.75322 3.18064,3.29286 4.07016,9.00224 4.38583,14.87375 z"
         id="path3905"
         inkscape:connector-curvature="0"
         sodipodi:nodetypes="ccsccssccc" />
      <path
         style="fill:#794a81;fill-opacity:1;stroke:none;display:inline"
         d="m 498.86852,205.58968 c -6.61702,-6.98502 -13.22143,-4.26912 -19.12961,4.03894 -2.13468,3.00178 -4.06596,8.27432 -4.18769,11.31404 7.92067,-1.23366 13.89036,-1.04569 22.04108,-0.30763 7.60478,0.68862 7.98103,1.27534 8.70268,1.5678 -0.33542,-4.1831 -2.06548,-10.95406 -7.42646,-16.61319 z"
         id="path3867"
         inkscape:connector-curvature="0"
         sodipodi:nodetypes="cscscsc" />
      <path
         style="fill:#794a81;fill-opacity:1;stroke:none;display:inline"
         d="m 503.01195,244.58946 c -0.19874,3.95416 -6.20096,12.73526 -11.53314,12.87937 -3.56018,0.0962 -7.73814,-0.30676 -10.51622,-4.51415 -2.55137,-3.86404 -2.74911,-9.83666 -2.41743,-9.66795 4.11847,2.09485 6.94659,3.00082 10.65132,3.29177 4.63835,0.36427 7.65477,0.23475 13.81547,-1.98904 z"
         id="path3869"
         inkscape:connector-curvature="0"
         sodipodi:nodetypes="csssac" />
      <path
         style="fill:#251c30;fill-opacity:1;stroke:none;display:inline"
         d="m 496.33989,229.43268 c 0.5129,4.76 -1.38284,7.75127 -2.83088,8.11952 -4.7617,1.21094 -6.04937,-9.05989 -3.19953,-12.11834 2.4515,-2.63095 5.57785,-0.20136 6.03041,3.99882 z"
         id="path3871"
         inkscape:connector-curvature="0"
         sodipodi:nodetypes="ssss" />
      <path
         sodipodi:nodetypes="sccs"
         inkscape:connector-curvature="0"
         id="path4026"
         d="m 495.0929,206.57102 c -5.85834,0.76342 -6.24506,7.95667 -7.06245,12.30861 6.79686,-0.34207 11.90187,-0.0796 16.67596,1.5089 -0.88599,-7.21717 -6.81692,-14.18195 -9.61351,-13.81751 z"
         style="fill:#b789b9;fill-opacity:1;stroke:none" />
      <path
         sodipodi:nodetypes="cscc"
         inkscape:connector-curvature="0"
         id="path4028"
         d="m 486.28647,247.58856 c 0,0 2.08294,7.4815 5.625,7.54234 5.33933,0.0917 9.19642,-8.21443 9.19642,-8.21443 -4.58432,0.91226 -10.25406,1.80255 -14.82143,0.67209 z"
         style="fill:#b789b9;fill-opacity:1;stroke:none" />
      <path
         sodipodi:nodetypes="csssc"
         inkscape:connector-curvature="0"
         id="path4043"
         d="m 432.22626,222.02647 c -0.22797,0.64171 2.13239,1.32595 3.18327,1.80839 5.7943,2.66006 11.13817,1.89938 13.71388,1.65924 5.04942,-0.47077 0.81418,-3.63595 -0.63163,-4.89408 -3.55286,-3.09165 -12.15236,-0.72162 -16.26552,1.42645 z"
         style="fill:#422139;fill-opacity:1;stroke:none;display:inline" />
      <path
         sodipodi:nodetypes="ssssssssssssssssssssss"
         inkscape:connector-curvature="0"
         id="path4509"
         d="m 471.87073,82.74561 c -27.30468,3.66911 -18.434,96.56513 -8.83755,139.32162 7.38022,32.88224 6.67209,57.56949 -19.19906,70.50507 -5.41196,2.70598 -33.60872,-7.32825 -35.25997,-4.02574 -5.0579,10.11579 -0.79398,22.011 -7.85715,31.42857 -2.51765,3.35686 -19.42724,15.57276 -12.85713,22.14286 9.47133,9.47134 13.39458,3.57833 17.14284,18.57142 1.82969,7.31877 -8.39442,28.74844 -4.28571,32.85715 6.87049,6.87048 19.85211,-2.93109 24.28571,-0.71429 7.38417,3.69209 10.45501,24.74073 16.42857,30.71429 4.9413,4.9413 11.03217,-9.92148 12.14286,-12.14286 3.14884,-6.29768 15.49335,-4.06478 19.28573,-7.85714 7.47425,-7.47426 21.73168,15.20558 27.85713,12.14285 4.36585,-2.18292 11.13526,-13.9924 15.71428,-18.57142 5.57262,-5.57261 17.7037,-1.9894 22.85716,-7.14286 3.62084,-3.62084 -3.56849,-14.29013 -0.71429,-18.57143 6.41552,-9.62328 26.44149,-12.16868 32.14286,-23.57143 2.73564,-5.47128 -34.28572,-27.06529 -34.28572,-50.71428 0,-50.03492 -16.16629,4.13504 -45.71428,-5.71429 -10.12693,-3.37564 -9.68832,-30.0909 -14.28573,-39.28571 -8.88742,-17.77486 4.45583,-52.13811 12.14158,-88.72544 5.69345,-27.10316 0.076,-82.90152 -16.70213,-80.64694 z"
         style="fill:#bf97c1;fill-opacity:1;stroke:none;display:inline" />
      <path
         sodipodi:nodetypes="cccsc"
         inkscape:connector-curvature="0"
         id="path4045"
         d="m 435.37968,244.62379 c -0.0847,-1.56372 12.00487,-0.37253 17.29029,-0.2076 l -0.16025,5.37333 c 0,0 -8.53072,1.75103 -12.28789,0.1194 -2.19158,-0.95173 -4.84215,-5.28513 -4.84215,-5.28513 z"
         style="fill:#422139;fill-opacity:1;stroke:none" />
      <path
         sodipodi:nodetypes="sssss"
         inkscape:connector-curvature="0"
         id="path4047"
         d="m 445.33262,249.51567 c 4.96188,0.94109 11.30759,-1.17516 12.95427,-5.70235 3.14054,-8.63423 2.11404,-16.65544 1.88176,-22.89693 -0.1913,-5.14134 -2.14967,-10.9838 -8.45513,-10.99352 -20.72192,-0.032 -18.04196,37.38113 -6.3809,39.5928 z"
         style="fill:#fcfcff;fill-opacity:1;stroke:none;display:inline" />
      <path
         sodipodi:nodetypes="ccsccssccc"
         inkscape:connector-curvature="0"
         id="path4049"
         d="m 436.75969,230.32913 c 0,0 1.14422,-0.0335 4.42096,0.0541 0.54657,-2.82822 1.15573,-6.97129 5.22638,-6.48537 4.32701,0.51653 3.83743,6.76855 3.83743,6.76855 3.36495,-0.83555 7.24182,-0.39139 9.43552,0.17857 0,0 0.82142,-8.98611 -0.94516,-12.26015 -1.72473,-3.19643 -4.87441,-4.19189 -8.66706,-4.88271 -3.22415,-0.58726 -6.40493,-0.34552 -8.92223,1.75322 -3.18065,3.29286 -4.07016,9.00224 -4.38584,14.87375 z"
         style="fill:#dcdaef;fill-opacity:1;stroke:none" />
      <path
         sodipodi:nodetypes="cscscsc"
         inkscape:connector-curvature="0"
         id="path4051"
         d="m 439.5848,205.58968 c 6.61702,-6.98502 13.22144,-4.26912 19.12962,4.03894 2.13468,3.00178 4.06597,8.27432 4.18769,11.31404 -7.92067,-1.23366 -13.89036,-1.04569 -22.04109,-0.30763 -7.60477,0.68862 -7.98102,1.27534 -8.70267,1.5678 0.33542,-4.1831 2.06548,-10.95406 7.42645,-16.61319 z"
         style="fill:#794a81;fill-opacity:1;stroke:none;display:inline" />
      <path
         sodipodi:nodetypes="csssac"
         inkscape:connector-curvature="0"
         id="path4053"
         d="m 435.44138,244.58946 c 0.19874,3.95416 6.20096,12.73526 11.53314,12.87937 3.56018,0.0962 7.73815,-0.30676 10.51622,-4.51415 2.55137,-3.86404 2.74911,-9.83666 2.41744,-9.66795 -4.11848,2.09485 -6.9466,3.00082 -10.65133,3.29177 -4.63835,0.36427 -7.65477,0.23475 -13.81547,-1.98904 z"
         style="fill:#794a81;fill-opacity:1;stroke:none;display:inline" />
      <path
         sodipodi:nodetypes="ssss"
         inkscape:connector-curvature="0"
         id="path4055"
         d="m 442.11343,229.43268 c -0.51289,4.76 1.38284,7.75127 2.83088,8.11952 4.7617,1.21094 6.04938,-9.05989 3.19955,-12.11834 -2.4515,-2.63095 -5.57785,-0.20136 -6.03043,3.99882 z"
         style="fill:#251c30;fill-opacity:1;stroke:none;display:inline" />
      <path
         style="fill:#b789b9;fill-opacity:1;stroke:none"
         d="m 443.36042,206.74941 c 5.85834,0.75357 6.24508,7.85395 7.06245,12.1497 -6.79685,-0.33765 -11.90186,-0.0786 -16.67594,1.48942 0.88598,-7.12399 6.81691,-13.99885 9.61349,-13.63912 z"
         id="path4057"
         inkscape:connector-curvature="0"
         sodipodi:nodetypes="sccs" />
      <path
         style="fill:#b789b9;fill-opacity:1;stroke:none"
         d="m 452.16687,247.57395 c 0,0 -2.08295,7.31888 -5.625,7.3784 -5.33934,0.0897 -9.19644,-8.03588 -9.19644,-8.03588 4.58432,0.89243 10.25406,1.76337 14.82144,0.65748 z"
         id="path4059"
         inkscape:connector-curvature="0"
         sodipodi:nodetypes="cscc" />
      <path
         sodipodi:nodetypes="cscsc"
         inkscape:connector-curvature="0"
         id="path4063"
         d="m 307.76363,525.91113 c -3.62221,4.08115 -5.10902,11.87063 -8.14557,18.8874 -3.61775,8.35979 -8.34119,13.63272 -15.03065,19.90374 -1.95372,-6.06091 -1.92734,-13.44927 -1.66841,-15.25779 2.85715,-19.95572 13.0502,-21.56761 24.84463,-23.53335 z"
         style="fill:#e3b9e1;fill-opacity:1;stroke:none" />
      <path
         sodipodi:nodetypes="cssc"
         inkscape:connector-curvature="0"
         id="path4065"
         d="m 181.33505,386.53131 c -9.12601,4.38717 -14.92076,12.96883 -13.21428,28.03571 0.35826,3.16313 4.35404,10.42389 6.42858,9.64286 5.82601,-2.1934 11.47237,-28.62835 6.7857,-37.67857 z"
         style="fill:#e3b9e1;fill-opacity:1;stroke:none" />
      <path
         sodipodi:nodetypes="cssc"
         inkscape:connector-curvature="0"
         id="path4067"
         d="m 266.97909,303.56957 c 0.0744,3.93629 1.53098,7.76117 3.17993,10.23459 2.38682,3.58024 13.11682,9.44818 17.37745,5.18755 2.58958,-2.58958 -12.82788,-13.553 -20.55738,-15.42214 z"
         style="fill:#e3b9e1;fill-opacity:1;stroke:none" />
      <path
         sodipodi:nodetypes="csc"
         inkscape:connector-curvature="0"
         id="path4069"
         d="m 216.28647,155.57718 c 1.98761,10.33884 -0.005,17.65495 -4.46429,24.64286 -4.58687,7.18717 -8.40823,-18.54514 4.46429,-24.64286 z"
         style="fill:#e3b9e1;fill-opacity:1;stroke:none" />
      <path
         sodipodi:nodetypes="cccsc"
         inkscape:connector-curvature="0"
         id="path4071"
         d="m 727.82337,381.95717 c 0.15361,6.17959 1.48206,8.1596 4.04741,12.00762 4.93656,5.53859 7.70381,7.76455 13.47579,12.50154 1.65255,-0.82628 1.28036,-8.80998 0.71429,-10.35715 -3.5969,-9.83088 -6.65232,-9.27046 -18.23749,-14.15201 z"
         style="fill:#e3b9e1;fill-opacity:1;stroke:none" />
      <path
         sodipodi:nodetypes="csssc"
         inkscape:connector-curvature="0"
         id="path4073"
         d="m 769.14362,438.97004 c 2.84649,-3.54798 2.76711,-5.36044 3.86729,-7.06177 3.06217,-4.73539 7.88089,-8.39136 6.87949,-14.03844 -0.67371,-3.79917 -10.2868,5.89454 -10.92535,7.17164 -2.26744,4.53486 0.56903,7.47137 0.17857,13.92857 z"
         style="fill:#e3b9e1;fill-opacity:1;stroke:none" />
      <path
         sodipodi:nodetypes="ccssc"
         inkscape:connector-curvature="0"
         id="path4075"
         d="m 712.12178,556.54773 c 9.21611,-4.62686 17.083,-3.42213 26.03707,-6.37256 10.38217,-3.46072 8.4887,-5.07533 7.02995,-6.4557 -3.06772,-2.90287 -20.20253,-1.74479 -29.43957,6.69184 -1.67385,1.52878 -3.13319,3.59485 -3.62745,6.13642 z"
         style="fill:#e3b9e1;fill-opacity:1;stroke:none" />
      <path
         sodipodi:nodetypes="sssssss"
         inkscape:connector-curvature="0"
         id="path4293"
         d="m 222.91329,171.0697 c -1.822,-2.99434 -5.76429,8.80272 -4.00779,12.28573 1.04598,2.07401 3.40909,-1.51182 4.03462,-6.32959 0.34351,-2.64687 0.61578,-4.89999 -0.0268,-5.95614 z m -1.41623,3.96433 c 0.36952,0.32695 0.54538,1.04947 -0.12861,2.94398 -1.60482,4.51123 -0.67979,-3.65917 0.12861,-2.94398 z"
         style="fill:#794179;fill-opacity:1;stroke:none" />
      <path
         style="fill:#794179;fill-opacity:1;stroke:none"
         d="m 239.63336,211.19777 c 3.67361,-2.64659 6.50198,11.26662 2.79334,14.45886 -2.20841,1.90086 -3.49141,-2.31455 -3.74619,-8.19299 -0.12813,-2.95653 -0.34283,-5.33238 0.95285,-6.26587 z m 1.09272,4.95665 c -0.49047,0.20394 -0.63292,1.29106 -0.17834,3.56109 0.78192,3.90476 1.77636,-4.22557 0.17834,-3.56109 z"
         id="path4298"
         inkscape:connector-curvature="0"
         sodipodi:nodetypes="sssssss" />
      <path
         sodipodi:nodetypes="sssssss"
         inkscape:connector-curvature="0"
         id="path4300"
         d="m 226.01601,148.97742 c -1.66336,-2.80895 -5.01312,9.33758 -2.866,12.32698 1.54515,2.15128 2.52969,-1.86866 3.32068,-6.59488 0.49303,-2.94587 0.13199,-4.74134 -0.45468,-5.7321 z m -0.64975,3.94415 c 0.31994,0.29386 0.5074,0.99152 0.0785,2.90634 -1.02128,4.55958 -0.77843,-3.54914 -0.0785,-2.90634 z"
         style="fill:#794179;fill-opacity:1;stroke:none" />
      <path
         sodipodi:nodetypes="sssssss"
         inkscape:connector-curvature="0"
         id="path4302"
         d="m 236.99866,127.79198 c -1.76651,-3.1686 -8.3251,6.09263 -6.71134,9.67321 0.96096,2.13211 4.37048,-0.34541 5.85221,-4.41285 0.81387,-2.23468 1.48218,-4.14277 0.85913,-5.26036 z m -1.93631,3.59076 c 0.40024,0.39541 0.50584,1.08354 -0.59708,2.55898 -2.62626,3.51333 -0.27851,-3.42393 0.59708,-2.55898 z"
         style="fill:#794179;fill-opacity:1;stroke:none" />
      <path
         sodipodi:nodetypes="sssssss"
         inkscape:connector-curvature="0"
         id="path4304"
         d="m 246.84191,119.70557 c -2.25824,2.1721 6.39402,4.67452 11.54649,1.24339 1.59273,-1.06064 -1.88161,-3.47743 -6.32725,-3.08932 -2.44237,0.21337 -4.49296,1.14735 -5.21924,1.84593 z m 3.61288,1.22041 c 0.15917,-0.36192 0.73258,-0.63979 2.62883,-0.44379 4.51537,0.4667 -2.97697,1.23553 -2.62883,0.44379 z"
         style="fill:#794179;fill-opacity:1;stroke:none" />
      <path
         sodipodi:nodetypes="sssssss"
         inkscape:connector-curvature="0"
         id="path4306"
         d="m 264.89687,124.57158 c -3.29565,0.67097 -1.29331,10.71619 1.37896,12.39784 1.60316,1.00887 2.19084,-2.78682 0.86497,-7.32583 -0.72854,-2.4936 -1.26666,-5.27098 -2.24393,-5.07201 z m 0.0741,4.32105 c 0.40135,0.0303 0.99342,0.84487 1.19132,2.9183 0.47128,4.93725 -2.06931,-2.98449 -1.19132,-2.9183 z"
         style="fill:#794179;fill-opacity:1;stroke:none" />
      <path
         sodipodi:nodetypes="sssssss"
         inkscape:connector-curvature="0"
         id="path4308"
         d="m 263.89274,145.03609 c -2.36375,-2.89005 -6.8772,9.4827 -5.58368,12.07265 1.17594,2.35457 5.74708,-0.67234 6.58172,-5.46558 0.45832,-2.6334 -0.0848,-5.49053 -0.99803,-6.60707 z m -2.23042,4.64551 c 0.53337,0.35098 0.7944,1.08665 -0.14675,2.94481 -2.24103,4.42468 -1.02008,-3.71258 0.14675,-2.94481 z"
         style="fill:#794179;fill-opacity:1;stroke:none" />
      <path
         style="fill:#794179;fill-opacity:1;stroke:none"
         d="m 256.12648,163.62783 c -2.81242,-3.4386 -8.18254,11.28258 -6.64351,14.36412 1.39915,2.80149 6.53744,-0.95019 7.5305,-6.65322 0.54531,-3.13323 0.19956,-6.38243 -0.88699,-7.7109 z m -3.23719,5.13093 c 0.63461,0.4176 0.9452,1.29291 -0.17459,3.50376 -2.6664,5.26451 -1.2137,-4.41725 0.17459,-3.50376 z"
         id="path4312"
         inkscape:connector-curvature="0"
         sodipodi:nodetypes="sssssss" />
      <path
         sodipodi:nodetypes="sssssss"
         inkscape:connector-curvature="0"
         id="path4314"
         d="m 247.0092,186.23242 c -2.78666,-3.38824 -7.71858,11.42554 -6.17171,14.47933 1.40626,2.77625 6.31411,-1.06576 7.17167,-6.78542 0.47087,-3.14236 0.0766,-6.38489 -0.99996,-7.69391 z m -2.69972,4.4142 c 0.62225,0.40629 0.93905,1.27596 -0.10506,3.50626 -2.48619,5.31083 -1.25619,-4.39502 0.10506,-3.50626 z"
         style="fill:#794179;fill-opacity:1;stroke:none" />
      <path
         sodipodi:nodetypes="sssssss"
         inkscape:connector-curvature="0"
         id="path4373"
         d="m 250.29369,207.63036 c -4.54878,-2.29406 -5.24103,13.6662 -0.55717,16.56049 2.78911,1.72343 4.41345,-3.67435 3.04839,-9.57953 -0.75023,-3.24419 -0.88685,-6.17181 -2.49122,-6.98096 z m -1.26955,6.05161 c 0.78218,0.14431 1.43829,0.86204 1.25872,3.45056 -0.42752,6.16379 -2.96982,-3.76618 -1.25872,-3.45056 z"
         style="fill:#794179;fill-opacity:1;stroke:none" />
      <path
         sodipodi:nodetypes="sssssss"
         inkscape:connector-curvature="0"
         id="path4375"
         d="m 243.18699,235.2033 c 1.59026,-3.65915 8.83742,6.46404 7.42849,10.58029 -0.839,2.45109 -4.4572,-0.17627 -6.22064,-4.69051 -0.96864,-2.48016 -1.76872,-4.59916 -1.20785,-5.88978 z m 2.54647,3.36654 c -0.3809,0.46539 -0.44412,1.2465 0.76935,2.85644 2.88953,3.83357 0.0639,-3.87447 -0.76935,-2.85644 z"
         style="fill:#794179;fill-opacity:1;stroke:none" />
      <path
         sodipodi:nodetypes="sssssss"
         inkscape:connector-curvature="0"
         id="path4377"
         d="m 253.76417,228.15116 c -4.51531,-0.33458 0.3503,13.00345 5.18081,13.78479 2.87644,0.46523 2.75118,-5.47936 -0.37996,-9.86237 -1.72039,-2.40785 -3.2083,-3.80438 -4.80085,-3.92242 z m 1.52877,4.58099 c 0.69126,-0.14784 1.47423,0.218 2.20814,2.40413 1.74756,5.20565 -3.7203,-2.08066 -2.20814,-2.40413 z"
         style="fill:#794179;fill-opacity:1;stroke:none" />
      <path
         style="fill:#794179;fill-opacity:1;stroke:none"
         d="m 263.84736,246.81892 c -4.05148,2.02118 6.94987,10.996 11.50071,9.19758 2.70987,-1.07094 -0.43732,-6.11565 -5.36928,-8.2814 -2.70967,-1.18964 -4.70243,-1.62903 -6.13143,-0.91618 z m 3.15107,3.78656 c 0.4469,-0.5477 1.46198,-0.65849 3.12692,0.93705 4.00742,3.84041 -5.02927,1.39443 -3.12692,-0.93705 z"
         id="path4381"
         inkscape:connector-curvature="0"
         sodipodi:nodetypes="sssssss" />
      <path
         style="fill:#794179;fill-opacity:1;stroke:none"
         d="m 286.03191,264.22896 c -2.04103,-2.68911 8.89843,-3.509 11.36713,-0.75344 1.47001,1.64085 -2.15872,3.08567 -6.36969,2.41003 -2.31347,-0.37136 -4.27754,-0.70814 -4.99744,-1.65659 z m 3.69998,-0.36938 c 0.17841,0.46871 0.73964,0.84684 2.50708,0.67324 4.20864,-0.41338 -2.89731,-1.69855 -2.50708,-0.67324 z"
         id="path4383"
         inkscape:connector-curvature="0"
         sodipodi:nodetypes="sssssss" />
      <path
         style="fill:#794179;fill-opacity:1;stroke:none"
         d="m 284.85164,255.69038 c -2.61459,3.69645 11.32266,6.4039 14.48257,2.66768 1.88161,-2.22483 -3.27661,-5.18229 -8.64649,-4.75907 -2.95015,0.23274 -4.91386,0.78766 -5.83608,2.09139 z m 4.71342,1.05183 c 0.2297,-0.66852 0.94685,-1.1508 3.19841,-0.65257 5.36147,1.18642 -3.70084,2.11504 -3.19841,0.65257 z"
         id="path4385"
         inkscape:connector-curvature="0"
         sodipodi:nodetypes="sssssss" />
      <path
         sodipodi:nodetypes="sssssss"
         inkscape:connector-curvature="0"
         id="path4387"
         d="m 322.81384,250.84531 c -0.66372,-3.52381 -10.28588,2.84352 -9.91309,6.6972 0.22199,2.29475 3.38961,0.59954 6.89828,-2.607 1.76464,-1.61271 3.24888,-2.84732 3.01481,-4.0902 z m -3.47834,2.22167 c 0.17396,0.38541 -0.36266,1.0825 -1.92849,2.12515 -2.69344,1.79352 1.36172,-3.3809 1.92849,-2.12515 z"
         style="fill:#794179;fill-opacity:1;stroke:none" />
      <path
         style="fill:#794179;fill-opacity:1;stroke:none"
         d="m 317.88582,241.68899 c 5.03582,0.77113 -3.66152,14.17134 -9.15564,13.81067 -3.27157,-0.2148 -1.46236,-5.55346 3.07593,-9.57072 2.4935,-2.20684 4.30354,-4.51191 6.07971,-4.23995 z m -2.47755,5.66529 c -0.72077,-0.33634 -1.6716,-0.13251 -3.02738,2.07985 -3.22843,5.26805 4.60408,-1.34402 3.02738,-2.07985 z"
         id="path4389"
         inkscape:connector-curvature="0"
         sodipodi:nodetypes="sssssss" />
      <path
         sodipodi:nodetypes="sssssss"
         inkscape:connector-curvature="0"
         id="path4391"
         d="m 336.19259,232.52097 c -1.71377,-3.29746 -9.38406,5.62757 -7.86115,9.33049 0.90687,2.20497 3.55178,-0.33729 6.08422,-4.46532 1.27367,-2.07617 2.38135,-3.70213 1.77694,-4.86517 z m -2.7967,3.14726 c 0.28831,0.33287 -0.0372,1.16828 -1.28348,2.62708 -2.14376,2.50932 0.34419,-3.71162 1.28348,-2.62708 z"
         style="fill:#794179;fill-opacity:1;stroke:none" />
      <path
         style="fill:#794179;fill-opacity:1;stroke:none"
         d="m 331.34691,221.46568 c 5.0936,0.0973 -1.75203,14.53148 -7.24551,14.90178 -3.27119,0.22047 -2.18511,-5.31081 1.78103,-9.89384 2.17918,-2.51769 3.66794,-5.04222 5.46448,-5.00794 z m -1.70525,5.94356 c -0.75897,-0.2379 -1.67442,0.0901 -2.72519,2.46254 -2.50214,5.64929 4.38547,-1.94206 2.72519,-2.46254 z"
         id="path4393"
         inkscape:connector-curvature="0"
         sodipodi:nodetypes="sssssss" />
      <path
         style="fill:#794179;fill-opacity:1;stroke:none"
         d="m 346.47795,211.26397 c -4.0776,1.61828 8.52114,10.84017 11.9015,10.30024 3.07314,-0.49085 0.91423,-6.33783 -4.26994,-8.9018 -2.84828,-1.4084 -6.05623,-2.02361 -7.63156,-1.39844 z m 3.77311,3.51545 c 0.57696,-0.46837 1.50185,-0.50433 3.30655,1.17122 4.29733,3.98985 -4.56868,-0.14661 -3.30655,-1.17122 z"
         id="path4395"
         inkscape:connector-curvature="0"
         sodipodi:nodetypes="sssssss" />
      <path
         sodipodi:nodetypes="sssssss"
         inkscape:connector-curvature="0"
         id="path4397"
         d="m 340.98346,220.57067 c -2.77783,2.22307 10.16747,6.25819 12.71622,5.02985 2.31709,-1.11668 -1.21,-5.07938 -6.15927,-5.79622 -2.71913,-0.39361 -5.48377,-0.0924 -6.55695,0.76637 z m 4.10808,1.78626 c 0.31962,-0.4981 1.05124,-0.74846 3.01436,0.10141 4.67453,2.02367 -3.71353,0.98824 -3.01436,-0.10141 z"
         style="fill:#794179;fill-opacity:1;stroke:none" />
      <path
         style="fill:#794179;fill-opacity:1;stroke:none"
         d="m 380.91359,286.4227 c -2.49474,2.77777 -6.43178,-9.79028 -5.02,-12.31771 1.28348,-2.29773 5.45178,1.05158 6.0641,5.87827 0.33616,2.65176 -0.0803,5.36629 -1.04409,6.43944 z m -1.79616,-3.97512 c 0.54904,-0.32594 0.84376,-1.04879 -0.0105,-2.94845 -2.03426,-4.52349 -1.19051,3.6615 0.0105,2.94845 z"
         id="path4399"
         inkscape:connector-curvature="0"
         sodipodi:nodetypes="sssssss" />
      <path
         sodipodi:nodetypes="sssssss"
         inkscape:connector-curvature="0"
         id="path4401"
         d="m 374.37932,265.73126 c -2.96826,3.30501 -7.65257,-11.64854 -5.97284,-14.65569 1.52707,-2.73386 6.48657,1.25118 7.21511,6.994 0.39998,3.15507 -0.0955,6.38484 -1.24227,7.66169 z m -2.13709,-4.72963 c 0.6532,-0.38788 1.00393,-1.24786 -0.0125,-3.50807 -2.42035,-5.38208 -1.41647,4.35645 0.0125,3.50807 z"
         style="fill:#794179;fill-opacity:1;stroke:none" />
      <path
         style="fill:#794179;fill-opacity:1;stroke:none"
         d="m 367.5339,246.03014 c -2.63793,3.88235 -11.31593,-10.27067 -10.07763,-13.61078 1.12574,-3.03655 7.66149,0.0359 9.77613,5.67303 1.16143,3.09702 1.32059,6.43783 0.3015,7.93775 z m -3.49071,-4.35295 c 0.65651,-0.51303 0.86309,-1.44383 -0.79962,-3.52493 -3.95908,-4.95559 -0.63666,4.64721 0.79962,3.52493 z"
         id="path4403"
         inkscape:connector-curvature="0"
         sodipodi:nodetypes="sssssss" />
      <path
         style="fill:#794179;fill-opacity:1;stroke:none"
         d="m 536.25439,406.99113 c -4.38344,2.59607 8.68916,11.77846 13.65104,9.39199 2.95462,-1.42108 -0.71751,-5.69776 -6.42775,-7.72943 -3.13725,-1.1159 -5.67721,-2.57818 -7.22329,-1.66256 z m 4.41411,4.33007 c 0.543,-0.5812 1.50115,-0.74721 3.58508,0.79872 4.96228,3.68114 -4.77289,0.47272 -3.58508,-0.79872 z"
         id="path4405"
         inkscape:connector-curvature="0"
         sodipodi:nodetypes="sssssss" />
      <path
         sodipodi:nodetypes="sssssss"
         inkscape:connector-curvature="0"
         id="path4407"
         d="m 555.3111,417.13434 c -4.32659,-0.0422 1.13738,13.02546 5.79219,13.49548 2.7718,0.27987 1.983,-4.68879 -1.27369,-8.88336 -1.78939,-2.3043 -2.99248,-4.59722 -4.5185,-4.61212 z m 1.30454,5.35263 c 0.65007,-0.19328 1.41932,0.12295 2.25425,2.26888 1.98813,5.10995 -3.6763,-1.84601 -2.25425,-2.26888 z"
         style="fill:#794179;fill-opacity:1;stroke:none" />
      <path
         style="fill:#794179;fill-opacity:1;stroke:none"
         d="m 564.4003,434.08855 c -4.15238,-1.21606 -2.44413,12.84455 1.90789,14.5615 2.59151,1.02238 3.18226,-3.97369 1.18766,-8.89527 -1.09605,-2.70377 -1.63095,-5.23731 -3.09551,-5.66623 z m -0.19872,5.50572 c 0.67812,-0.009 1.33253,0.50392 1.55305,2.79597 0.52508,5.45789 -3.03651,-2.77535 -1.55305,-2.79597 z"
         id="path4409"
         inkscape:connector-curvature="0"
         sodipodi:nodetypes="sssssss" />
      <path
         sodipodi:nodetypes="sssssss"
         inkscape:connector-curvature="0"
         id="path4411"
         d="m 650.05169,502.09613 c 0.12115,3.93349 14.49126,-2.01669 14.83474,-6.28064 0.20452,-2.53906 -5.30947,-1.44735 -9.86365,1.82777 -2.50185,1.79948 -5.01378,3.06551 -4.97109,4.45287 z m 5.92243,-1.5892 c -0.24098,-0.57594 0.082,-1.29862 2.44424,-2.2191 5.62504,-2.19185 -1.91704,3.47898 -2.44424,2.2191 z"
         style="fill:#794179;fill-opacity:1;stroke:none" />
      <path
         style="fill:#794179;fill-opacity:1;stroke:none"
         d="m 670.29628,488.06925 c -0.28819,4.90766 14.62236,-0.62536 15.40702,-5.88364 0.46722,-3.13112 -2.98749,-2.66836 -9.28589,0.0988 -3.01103,1.32287 -6.01945,4.0539 -6.12113,5.78485 z m 6.05549,-1.20697 c -0.17983,-0.74758 0.21646,-1.60439 2.66158,-2.44224 5.82232,-1.99511 -2.26813,4.07759 -2.66158,2.44224 z"
         id="path4413"
         inkscape:connector-curvature="0"
         sodipodi:nodetypes="sssssss" />
      <path
         sodipodi:nodetypes="sssssss"
         inkscape:connector-curvature="0"
         id="path4415"
         d="m 695.08123,474.88432 c -2.33936,3.85384 14.01156,4.34175 16.49831,1.53812 2.17557,-2.45278 -3.22762,-6.05211 -9.20334,-5.0396 -3.28297,0.55656 -6.36258,1.96546 -7.29497,3.50148 z m 6.5014,0.73328 c 0.19043,-0.77226 0.94582,-1.38463 3.51913,-1.05192 6.1276,0.79225 -3.93565,2.74129 -3.51913,1.05192 z"
         style="fill:#794179;fill-opacity:1;stroke:none" />
      <path
         style="fill:#794179;fill-opacity:1;stroke:none"
         d="m 320.46473,453.96976 c -3.59189,3.61283 11.36641,9.22159 15.57082,5.66653 2.50357,-2.11694 -2.12411,-5.33549 -8.16145,-5.86947 -3.31688,-0.29308 -6.14248,-1.07131 -7.40937,0.20294 z m 5.35932,3.08406 c 0.37981,-0.69884 1.26564,-1.09995 3.6708,-0.12632 5.72714,2.31836 -4.50161,1.65512 -3.6708,0.12632 z"
         id="path4417"
         inkscape:connector-curvature="0"
         sodipodi:nodetypes="sssssss" />
      <path
         sodipodi:nodetypes="sssssss"
         inkscape:connector-curvature="0"
         id="path4419"
         d="m 299.309,447.49361 c -4.10511,3.01699 9.81176,10.86106 14.51322,7.99543 2.79953,-1.70641 -1.27765,-5.59883 -7.16088,-7.05562 -3.23227,-0.80007 -5.90442,-2.0039 -7.35234,-0.93981 z m 4.82082,3.87214 c 0.48284,-0.63206 1.41987,-0.89206 3.64652,0.44013 5.3021,3.17217 -4.70272,0.94259 -3.64652,-0.44013 z"
         style="fill:#794179;fill-opacity:1;stroke:none" />
      <path
         style="fill:#794179;fill-opacity:1;stroke:none"
         d="m 280.36865,438.90732 c -4.10512,3.01699 9.81175,10.86106 14.5132,7.99543 2.79954,-1.70641 -1.27765,-5.59883 -7.16086,-7.05562 -3.23228,-0.80007 -5.90444,-2.0039 -7.35234,-0.93981 z m 4.82082,3.87214 c 0.48284,-0.63206 1.41985,-0.89206 3.6465,0.44013 5.30212,3.17217 -4.70271,0.94259 -3.6465,-0.44013 z"
         id="path4421"
         inkscape:connector-curvature="0"
         sodipodi:nodetypes="sssssss" />
      <path
         sodipodi:nodetypes="sssssss"
         inkscape:connector-curvature="0"
         id="path4423"
         d="m 259.1544,435.48766 c -2.62901,4.36377 13.23426,6.25199 16.47195,1.79858 1.9279,-2.65187 -3.33272,-4.67678 -9.3237,-3.7588 -3.29135,0.50461 -6.22097,0.42111 -7.14825,1.96022 z m 5.93925,1.72019 c 0.20258,-0.76915 0.96755,-1.36953 3.5353,-0.99619 6.11432,0.889 -3.97846,2.67878 -3.5353,0.99619 z"
         style="fill:#794179;fill-opacity:1;stroke:none" />
      <path
         style="fill:#794179;fill-opacity:1;stroke:none"
         d="m 235.75652,443.54581 c -1.21315,4.94797 14.49443,2.03587 16.26211,-3.17861 1.05258,-3.10505 -4.57216,-3.47485 -10.01954,-0.81768 -2.99262,1.46009 -5.81466,2.25113 -6.24257,3.99629 z m 6.18212,-0.12286 c -0.0352,-0.79459 0.51678,-1.59522 3.07943,-2.00195 6.10223,-0.96851 -3.00244,3.74022 -3.07943,2.00195 z"
         id="path4425"
         inkscape:connector-curvature="0"
         sodipodi:nodetypes="sssssss" />
      <path
         sodipodi:nodetypes="sssssss"
         inkscape:connector-curvature="0"
         id="path4427"
         d="m 214.29078,450.86942 c -1.21316,4.94797 14.49443,2.03587 16.26211,-3.17861 1.05259,-3.10505 -4.57216,-3.47485 -10.01954,-0.81768 -2.99262,1.46009 -5.81466,2.25113 -6.24257,3.99629 z m 6.18212,-0.12286 c -0.0352,-0.79459 0.51677,-1.59522 3.07943,-2.00195 6.10223,-0.96851 -3.00244,3.74022 -3.07943,2.00195 z"
         style="fill:#794179;fill-opacity:1;stroke:none" />
      <path
         style="fill:#794179;fill-opacity:1;stroke:none"
         d="m 190.48548,408.16907 c 2.72025,2.57163 3.75961,-9.90574 0.97899,-13.08482 -1.65577,-1.89302 -3.37062,0.61575 -2.75434,6.5942 0.33876,3.28446 0.81593,5.58357 1.77535,6.49062 z m 0.51073,-5.32992 c -0.47735,-0.19247 -0.85488,-0.94954 -0.64475,-3.52194 0.50031,-6.12544 1.68902,3.94302 0.64475,3.52194 z"
         id="path4429"
         inkscape:connector-curvature="0"
         sodipodi:nodetypes="sssssss" />
      <path
         sodipodi:nodetypes="sssssss"
         inkscape:connector-curvature="0"
         id="path4431"
         d="m 186.59557,427.74007 c 1.96945,2.67283 5.02625,-9.36877 3.08828,-12.52712 -1.154,-1.88069 -3.53326,1.91005 -3.82412,6.6939 -0.15972,2.62823 0.0412,4.89046 0.73584,5.83322 z m 0.96664,-4.36171 c -0.38093,-0.26864 0.11466,-0.94944 0.64529,-2.88877 1.26356,-4.61795 0.18805,3.47646 -0.64529,2.88877 z"
         style="fill:#794179;fill-opacity:1;stroke:none" />
      <path
         sodipodi:nodetypes="sssssss"
         inkscape:connector-curvature="0"
         id="path4433"
         d="m 222.99658,270.34203 c -2.6191,4.36972 13.24842,6.22199 16.47599,1.76124 1.92189,-2.65623 -3.34331,-4.66922 -9.3322,-3.73766 -3.29019,0.51207 -6.21999,0.43522 -7.14379,1.97642 z m 5.94314,1.70672 c 0.20081,-0.7696 0.96445,-1.37172 3.53302,-1.00419 6.11632,0.87514 -3.97236,2.68779 -3.53302,1.00419 z"
         style="fill:#794179;fill-opacity:1;stroke:none" />
      <path
         style="fill:#794179;fill-opacity:1;stroke:none"
         d="m 247.86283,272.17521 c -5.08028,0.38074 2.55844,14.41138 8.06403,14.4752 3.27838,0.038 1.88599,-5.42424 -2.32917,-9.77931 -2.31599,-2.39245 -3.94302,-4.83015 -5.73486,-4.69589 z m 2.03356,5.83938 c 0.74451,-0.27983 1.67683,-0.003 2.85807,2.30697 2.81277,5.50122 -4.48681,-1.69483 -2.85807,-2.30697 z"
         id="path4435"
         inkscape:connector-curvature="0"
         sodipodi:nodetypes="sssssss" />
      <path
         sodipodi:nodetypes="sssssss"
         inkscape:connector-curvature="0"
         id="path4437"
         d="m 260.39833,302.07666 c -4.79764,-1.71369 -4.89906,14.33587 0.10689,16.62846 2.98087,1.36516 3.92498,-4.19213 1.83988,-9.88306 -1.14581,-3.12645 -0.25462,-6.14095 -1.94676,-6.7454 z m -1.14248,6.03591 c 0.794,0.0464 0.77616,0.93029 0.91832,3.52086 0.33825,6.16934 -2.65535,-3.62237 -0.91832,-3.52086 z"
         style="fill:#794179;fill-opacity:1;stroke:none" />
      <path
         style="fill:#794179;fill-opacity:1;stroke:none"
         d="m 212.4449,277.44542 c 5.0695,-0.50437 -0.0253,14.6367 -5.43674,15.65253 -3.22232,0.60489 -2.79643,-5.01591 0.60128,-10.03486 1.86691,-2.75721 3.04743,-5.43975 4.83546,-5.61767 z m -0.99211,6.10323 c -0.78172,-0.14672 -1.65205,0.2873 -2.4156,2.76686 -1.8181,5.90506 4.12573,-2.44588 2.4156,-2.76686 z"
         id="path4439"
         inkscape:connector-curvature="0"
         sodipodi:nodetypes="sssssss" />
      <path
         style="fill:#794179;fill-opacity:1;stroke:none"
         d="m 185.61973,344.65864 c -5.0889,-0.23911 0.78914,14.61543 6.24622,15.34747 3.24949,0.43589 2.53086,-5.155 -1.12417,-9.98981 -2.00826,-2.65602 -3.32717,-5.27329 -5.12205,-5.35766 z m 1.30929,6.04314 c 0.77298,-0.18734 1.66481,0.20039 2.5567,2.63703 2.1238,5.80213 -4.24774,-2.22724 -2.5567,-2.63703 z"
         id="path4441"
         inkscape:connector-curvature="0"
         sodipodi:nodetypes="sssssss" />
      <path
         sodipodi:nodetypes="sssssss"
         inkscape:connector-curvature="0"
         id="path4443"
         d="m 201.00428,364.5342 c -4.50628,2.5739 8.11224,13.64553 13.18643,11.34361 3.02148,-1.3707 -0.44082,-6.36091 -6.04866,-9.00461 -3.08101,-1.45214 -5.54835,-3.2468 -7.13777,-2.339 z m 4.20119,5.10042 c 0.57075,-0.60644 1.53634,-0.72435 3.54391,1.13161 4.78042,4.4194 -4.79255,0.19503 -3.54391,-1.13161 z"
         style="fill:#794179;fill-opacity:1;stroke:none" />
      <path
         style="fill:#794179;fill-opacity:1;stroke:none"
         d="m 222.83413,377.72517 c -3.52989,3.6734 11.52164,9.02692 15.66496,5.40083 2.46719,-2.1592 -2.21457,-5.29857 -8.26012,-5.72978 -3.32138,-0.23662 -6.15979,-0.96666 -7.40484,0.32895 z m 5.41101,2.99244 c 0.36781,-0.70521 1.24675,-1.12132 3.66812,-0.18874 5.76576,2.22066 -4.4728,1.73147 -3.66812,0.18874 z"
         id="path4445"
         inkscape:connector-curvature="0"
         sodipodi:nodetypes="sssssss" />
      <path
         sodipodi:nodetypes="sssssss"
         inkscape:connector-curvature="0"
         id="path4447"
         d="m 247.07779,383.53355 c -3.52989,3.6734 11.52164,9.02692 15.66496,5.40083 2.46718,-2.1592 -2.21457,-5.29857 -8.26011,-5.72978 -3.32138,-0.23662 -6.1598,-0.96666 -7.40484,0.32895 z m 5.41101,2.99244 c 0.36781,-0.70521 1.24675,-1.12132 3.66812,-0.18874 5.76576,2.22066 -4.47281,1.73147 -3.66812,0.18874 z"
         style="fill:#794179;fill-opacity:1;stroke:none" />
      <path
         style="fill:#794179;fill-opacity:1;stroke:none"
         d="m 274.93337,387.96677 c -2.71584,4.31024 13.10644,6.51572 16.43264,2.12801 1.98062,-2.61272 -3.2384,-4.74256 -9.24658,-3.94472 -3.30077,0.43861 -6.22813,0.29647 -7.18606,1.81671 z m 5.90362,1.83874 c 0.21791,-0.76493 0.99478,-1.34987 3.55453,-0.92519 6.0953,1.01125 -4.03129,2.59859 -3.55453,0.92519 z"
         id="path4449"
         inkscape:connector-curvature="0"
         sodipodi:nodetypes="sssssss" />
      <path
         sodipodi:nodetypes="sssssss"
         inkscape:connector-curvature="0"
         id="path4451"
         d="m 303.13334,386.25794 c -2.28057,4.55554 13.68165,5.20055 16.56206,0.50813 1.71517,-2.79417 -3.68739,-4.40254 -9.58851,-3.02001 -3.24194,0.75982 -6.16914,0.90511 -6.97355,2.51188 z m 6.05534,1.25161 c 0.14193,-0.7826 0.85778,-1.44082 3.44681,-1.26892 6.16504,0.40933 -3.75735,2.98097 -3.44681,1.26892 z"
         style="fill:#794179;fill-opacity:1;stroke:none" />
      <path
         style="fill:#794179;fill-opacity:1;stroke:none"
         d="m 331.16507,380.95464 c -2.28057,4.55554 13.68165,5.20055 16.56206,0.50813 1.71516,-2.79417 -3.68739,-4.40254 -9.58851,-3.02001 -3.24195,0.75982 -6.16914,0.90511 -6.97355,2.51188 z m 6.05534,1.25161 c 0.14193,-0.7826 0.85777,-1.44082 3.44682,-1.26892 6.16503,0.40933 -3.75737,2.98097 -3.44682,1.26892 z"
         id="path4453"
         inkscape:connector-curvature="0"
         sodipodi:nodetypes="sssssss" />
      <path
         sodipodi:nodetypes="sssssss"
         inkscape:connector-curvature="0"
         id="path4455"
         d="m 359.70188,374.38865 c -2.28057,4.55554 13.68165,5.20055 16.56206,0.50813 1.71516,-2.79417 -3.68739,-4.40254 -9.58851,-3.02001 -3.24194,0.75982 -6.16914,0.90511 -6.97355,2.51188 z m 6.05534,1.25161 c 0.14193,-0.7826 0.85778,-1.44082 3.44681,-1.26892 6.16504,0.40933 -3.75735,2.98097 -3.44681,1.26892 z"
         style="fill:#794179;fill-opacity:1;stroke:none" />
      <path
         style="fill:#794179;fill-opacity:1;stroke:none"
         d="m 562.92413,359.99525 c -2.28057,4.55554 13.68165,5.20055 16.56206,0.50813 1.71516,-2.79417 -3.68739,-4.40254 -9.58851,-3.02001 -3.24195,0.75982 -6.16914,0.90511 -6.97355,2.51188 z m 6.05534,1.25161 c 0.14193,-0.7826 0.85777,-1.44082 3.44681,-1.26892 6.16504,0.40933 -3.75735,2.98097 -3.44681,1.26892 z"
         id="path4457"
         inkscape:connector-curvature="0"
         sodipodi:nodetypes="sssssss" />
      <path
         sodipodi:nodetypes="sssssss"
         inkscape:connector-curvature="0"
         id="path4459"
         d="m 588.99543,358.79004 c -2.65601,4.34737 13.19524,6.33395 16.46048,1.90069 1.9443,-2.63985 -3.30365,-4.69735 -9.30021,-3.81654 -3.29441,0.48418 -6.22344,0.38251 -7.16027,1.91585 z m 5.92847,1.75697 c 0.20731,-0.76787 0.97601,-1.36349 3.54139,-0.97423 6.10869,0.92692 -3.99499,2.65406 -3.54139,0.97423 z"
         style="fill:#794179;fill-opacity:1;stroke:none" />
      <path
         style="fill:#794179;fill-opacity:1;stroke:none"
         d="m 614.97103,357.83536 c -0.73995,5.04048 14.62198,0.65646 15.88878,-4.70179 0.75431,-3.19064 -4.8802,-3.02703 -10.05197,0.13324 -2.84118,1.73645 -5.57579,2.79073 -5.83681,4.56855 z m 6.14281,-0.70678 c -0.11018,-0.78769 0.36364,-1.63691 2.87638,-2.28409 5.98334,-1.54107 -2.6354,4.00732 -2.87638,2.28409 z"
         id="path4461"
         inkscape:connector-curvature="0"
         sodipodi:nodetypes="sssssss" />
      <path
         sodipodi:nodetypes="sssssss"
         inkscape:connector-curvature="0"
         id="path4463"
         d="m 634.96391,348.76576 c 0.52023,6.03219 15.13085,-2.49416 15.06926,-9.01364 -0.0367,-3.8821 -5.76172,-2.43609 -10.25365,2.39504 -2.46762,2.65441 -4.99907,4.49099 -4.81561,6.6186 z m 6.10755,-2.19155 c -0.31241,-0.89235 -0.0427,-1.98646 2.36485,-3.29973 5.7329,-3.12716 -1.68146,5.25193 -2.36485,3.29973 z"
         style="fill:#794179;fill-opacity:1;stroke:none" />
      <path
         style="fill:#794179;fill-opacity:1;stroke:none"
         d="m 654.18326,327.88726 c 3.1302,5.18263 12.47483,-8.91866 9.54099,-14.74104 -1.74701,-3.46699 -6.24528,0.35823 -8.14254,6.67628 -1.04205,3.47119 -2.50247,6.23677 -1.39845,8.06476 z m 4.51233,-4.66305 c -0.6743,-0.66273 -0.9154,-1.76349 0.66491,-4.00483 3.76305,-5.3371 0.81021,5.45469 -0.66491,4.00483 z"
         id="path4465"
         inkscape:connector-curvature="0"
         sodipodi:nodetypes="sssssss" />
      <path
         sodipodi:nodetypes="sssssss"
         inkscape:connector-curvature="0"
         id="path4467"
         d="m 666.78352,304.87925 c 1.65462,5.8241 14.38342,-5.31799 13.08674,-11.70752 -0.77215,-3.80471 -6.11912,-1.29936 -9.61349,4.29587 -1.91953,3.07416 -4.05681,5.35742 -3.47325,7.41165 z m 5.58119,-3.30989 c -0.47593,-0.81693 -0.41859,-1.94233 1.69627,-3.68828 5.03592,-4.15749 -0.6551,5.47548 -1.69627,3.68828 z"
         style="fill:#794179;fill-opacity:1;stroke:none" />
      <path
         style="fill:#794179;fill-opacity:1;stroke:none"
         d="m 686.0036,286.6214 c -0.62561,6.02217 15.3298,0.40137 16.49767,-6.01296 0.69539,-3.81948 -5.19954,-3.47803 -10.52127,0.42023 -2.92354,2.14194 -5.7557,3.46866 -5.9764,5.59273 z m 6.41108,-1.00155 c -0.13867,-0.93523 0.33234,-1.95893 2.94422,-2.79506 6.21941,-1.991 -2.64088,4.84105 -2.94422,2.79506 z"
         id="path4469"
         inkscape:connector-curvature="0"
         sodipodi:nodetypes="sssssss" />
      <path
         sodipodi:nodetypes="sssssss"
         inkscape:connector-curvature="0"
         id="path4471"
         d="m 713.07613,275.68691 c -3.45283,4.97352 13.23494,7.74598 17.35195,2.6905 2.45147,-3.01035 -2.87704,-5.55469 -9.41909,-4.70686 -3.59413,0.4661 -6.71498,0.26218 -7.93286,2.01636 z m 6.09906,2.21508 c 0.32964,-0.88613 1.23602,-1.55567 3.92727,-1.02825 6.40843,1.25588 -4.64844,2.9668 -3.92727,1.02825 z"
         style="fill:#794179;fill-opacity:1;stroke:none" />
      <path
         style="fill:#794179;fill-opacity:1;stroke:none"
         d="m 740.42889,277.09353 c -5.94683,1.13713 4.03521,14.79462 10.5139,14.06367 3.85778,-0.43528 1.83134,-5.98148 -3.43565,-9.9534 -2.89384,-2.1819 -4.98074,-4.51131 -7.07825,-4.11027 z m 2.80732,5.85013 c 0.85555,-0.40241 1.97157,-0.24652 3.52518,2.0134 3.69952,5.38134 -5.39684,-1.13309 -3.52518,-2.0134 z"
         id="path4473"
         inkscape:connector-curvature="0"
         sodipodi:nodetypes="sssssss" />
      <path
         sodipodi:nodetypes="sssssss"
         inkscape:connector-curvature="0"
         id="path4477"
         d="m 667.17736,163.7515 c -1.59558,4.83819 14.29137,3.16075 16.46059,-1.8999 1.29166,-3.01343 -4.28707,-3.82104 -9.92519,-1.59705 -3.09744,1.22208 -5.97258,1.79048 -6.5354,3.49695 z m 6.17286,0.35992 c 0.0269,-0.7949 0.63967,-1.55001 3.22627,-1.75552 6.1592,-0.48936 -3.28516,3.49452 -3.22627,1.75552 z"
         style="fill:#794179;fill-opacity:1;stroke:none" />
      <path
         style="fill:#794179;fill-opacity:1;stroke:none"
         d="m 685.39661,164.6949 c -4.83819,-1.2386 -3.16075,11.09393 1.8999,12.77783 3.01343,1.00268 3.82105,-3.32792 1.59705,-7.70461 -1.22208,-2.40444 -1.79048,-4.63633 -3.49695,-5.07322 z m -0.35992,4.79179 c 0.7949,0.0209 1.55002,0.49655 1.75553,2.50445 0.48936,4.78119 -3.49452,-2.55017 -1.75553,-2.50445 z"
         id="path4479"
         inkscape:connector-curvature="0"
         sodipodi:nodetypes="sssssss" />
      <path
         sodipodi:nodetypes="sssssss"
         inkscape:connector-curvature="0"
         id="path4481"
         d="m 672.11486,183.35094 c 4.7781,1.45324 3.65261,-10.94186 -1.32787,-12.84988 -2.96569,-1.13613 -3.96572,3.15411 -1.93924,7.62568 1.11359,2.45657 1.58184,4.7116 3.2671,5.2242 z m 0.57336,-4.77097 c -0.79318,-0.0563 -1.52632,-0.56521 -1.64203,-2.58028 -0.27553,-4.79826 3.37726,2.70355 1.64203,2.58028 z"
         style="fill:#794179;fill-opacity:1;stroke:none" />
      <path
         style="fill:#794179;fill-opacity:1;stroke:none"
         d="m 668.93703,257.15494 c 0.85463,5.0223 14.1086,-3.89627 13.65677,-9.38367 -0.26908,-3.26752 -5.57697,-1.36995 -9.51833,3.23441 -2.16515,2.52976 -4.43984,4.37783 -4.13844,6.14926 z m 5.62336,-2.57129 c -0.3483,-0.71503 -0.16025,-1.66914 2.02931,-3.06146 5.21377,-3.31539 -1.26737,4.62577 -2.02931,3.06146 z"
         id="path4483"
         inkscape:connector-curvature="0"
         sodipodi:nodetypes="sssssss" />
      <path
         sodipodi:nodetypes="sssssss"
         inkscape:connector-curvature="0"
         id="path4485"
         d="m 647.07894,261.8488 c -2.27646,4.55759 13.68634,5.18821 16.56254,0.49319 1.71262,-2.79571 -3.69138,-4.39921 -9.59124,-3.01135 -3.24126,0.76273 -6.16833,0.91066 -6.97129,2.51816 z m 6.05647,1.24614 c 0.14122,-0.78271 0.85646,-1.44159 3.44566,-1.27202 6.1654,0.40377 -3.75467,2.98437 -3.44566,1.27202 z"
         style="fill:#794179;fill-opacity:1;stroke:none" />
      <path
         style="fill:#794179;fill-opacity:1;stroke:none"
         d="m 645.3361,257.09578 c 0.2882,5.08634 -14.62237,-0.6481 -15.40704,-6.09786 -0.4672,-3.24512 5.13036,-2.58046 10.0002,1.02774 2.67527,1.98253 5.30515,3.27612 5.40684,5.07012 z m -6.05549,-1.25094 c 0.17989,-0.77473 -0.21642,-1.66278 -2.66156,-2.53112 -5.82236,-2.06771 2.26811,4.22607 2.66156,2.53112 z"
         id="path4487"
         inkscape:connector-curvature="0"
         sodipodi:nodetypes="sssssss" />
      <path
         style="fill:#794179;fill-opacity:1;stroke:none"
         d="m 628.46771,260.01854 c -1.21637,-4.84382 11.10834,-3.10979 12.76897,1.95854 0.98883,3.018 -3.34542,3.80572 -7.71186,1.56167 -2.3988,-1.23312 -4.62806,-1.81176 -5.05711,-3.52019 z m 4.79341,-0.33791 c 0.0172,0.79498 0.48942,1.55227 2.49635,1.76699 4.7789,0.51131 -2.53409,-3.50619 -2.49635,-1.76699 z"
         id="path4489"
         inkscape:connector-curvature="0"
         sodipodi:nodetypes="sssssss" />
      <path
         sodipodi:nodetypes="sssssss"
         inkscape:connector-curvature="0"
         id="path4491"
         d="m 625.15753,246.38149 c 0.2882,5.08634 -14.62237,-0.6481 -15.40704,-6.09786 -0.46721,-3.24512 5.13036,-2.58046 10.00019,1.02774 2.67527,1.98253 5.30515,3.27612 5.40684,5.07012 z m -6.05549,-1.25094 c 0.17988,-0.77473 -0.21643,-1.66278 -2.66157,-2.53112 -5.82235,-2.06771 2.26812,4.22607 2.66157,2.53112 z"
         style="fill:#794179;fill-opacity:1;stroke:none" />
      <path
         sodipodi:nodetypes="sssssss"
         inkscape:connector-curvature="0"
         id="path4493"
         d="m 608.28913,249.30425 c -1.21637,-4.84382 11.10833,-3.10979 12.76897,1.95854 0.98883,3.018 -3.34542,3.80572 -7.71186,1.56167 -2.3988,-1.23312 -4.62806,-1.81176 -5.05711,-3.52019 z m 4.7934,-0.33791 c 0.0172,0.79498 0.48942,1.55227 2.49636,1.76699 4.7789,0.51131 -2.53409,-3.50619 -2.49636,-1.76699 z"
         style="fill:#794179;fill-opacity:1;stroke:none" />
      <path
         style="fill:#794179;fill-opacity:1;stroke:none"
         d="m 600.84833,236.44295 c 2.86976,4.20932 -12.86253,6.98493 -16.34506,2.72025 -2.0737,-2.53948 3.065,-4.85646 9.09805,-4.27618 3.31447,0.31908 6.23478,0.0713 7.24701,1.55593 z m -5.83336,2.0508 c -0.24538,-0.75654 -1.04287,-1.31305 -3.58561,-0.79617 -6.05479,1.23077 4.12253,2.45127 3.58561,0.79617 z"
         id="path4495"
         inkscape:connector-curvature="0"
         sodipodi:nodetypes="sssssss" />
      <path
         style="fill:#794179;fill-opacity:1;stroke:none"
         d="m 587.90278,247.64555 c -3.53995,-3.5229 7.91392,-8.3926 11.9503,-4.90642 2.40349,2.07589 -0.90386,4.98581 -5.80216,5.31474 -2.69114,0.18045 -4.89954,0.83422 -6.14813,-0.4083 z m 3.9327,-2.7613 c 0.42468,0.67227 1.21978,1.0776 3.05002,0.22667 4.35819,-2.02622 -3.9792,-1.69734 -3.05002,-0.22667 z"
         id="path4497"
         inkscape:connector-curvature="0"
         sodipodi:nodetypes="sssssss" />
      <path
         sodipodi:nodetypes="sssssss"
         inkscape:connector-curvature="0"
         id="path4499"
         d="m 575.51233,238.22439 c 4.40107,2.56604 -8.60846,11.83758 -13.58654,9.48508 -2.96424,-1.40086 0.67858,-5.70254 6.37478,-7.77319 3.12954,-1.13733 5.65944,-2.61691 7.21176,-1.71189 z m -4.38442,4.36012 c -0.54688,-0.57748 -1.50619,-0.73694 -3.57951,0.82321 -4.93699,3.71502 4.77602,0.44012 3.57951,-0.82321 z"
         style="fill:#794179;fill-opacity:1;stroke:none" />
      <path
         sodipodi:nodetypes="sssssss"
         inkscape:connector-curvature="0"
         id="path4501"
         d="m 568.85505,254.46056 c -4.49915,-2.16787 4.72561,-10.52304 9.68173,-8.55258 2.95116,1.17334 0.7804,5.00661 -3.73943,6.92301 -2.4833,1.05263 -4.35538,2.39418 -5.94227,1.62959 z m 2.81027,-3.89785 c 0.62159,0.49591 1.50562,0.61822 2.9558,-0.78564 3.45321,-3.34286 -4.31572,-0.29919 -2.9558,0.78564 z"
         style="fill:#794179;fill-opacity:1;stroke:none" />
      <path
         style="fill:#794179;fill-opacity:1;stroke:none"
         d="m 557.53499,250.24976 c 5.07078,0.49106 -2.87107,14.35238 -8.37674,14.29654 -3.27841,-0.0333 -1.76765,-5.46396 2.54117,-9.72639 2.36743,-2.34155 4.04706,-4.7433 5.83557,-4.57015 z m -2.16002,5.7938 c -0.73823,-0.29595 -1.67634,-0.0398 -2.90751,2.24431 -2.93167,5.4388 4.5226,-1.59691 2.90751,-2.24431 z"
         id="path4503"
         inkscape:connector-curvature="0"
         sodipodi:nodetypes="sssssss" />
      <path
         style="fill:#794179;fill-opacity:1;stroke:none"
         d="m 555.33479,268.39028 c -4.93694,-0.75413 1.43419,-11.44591 6.75017,-11.01443 3.16545,0.25694 2.2134,4.55807 -1.54636,7.71494 -2.06577,1.73418 -3.46249,3.56546 -5.20378,3.29951 z m 1.54457,-4.55029 c 0.73963,0.29197 1.62068,0.14983 2.59577,-1.61739 2.32191,-4.2081 -4.21392,0.97873 -2.59577,1.61739 z"
         id="path4505"
         inkscape:connector-curvature="0"
         sodipodi:nodetypes="sssssss" />
      <path
         sodipodi:nodetypes="sssssss"
         inkscape:connector-curvature="0"
         id="path4507"
         d="m 546.06776,284.96471 c -4.88559,1.03586 -2.69556,-11.21604 2.43089,-12.68752 3.0526,-0.87619 3.67898,3.48428 1.2745,7.76448 -1.32124,2.35141 -1.98218,4.55766 -3.70536,4.92305 z m -0.15985,-4.80263 c 0.79507,0.0123 1.56936,-0.4315 1.85838,-2.42908 0.68823,-4.75665 -3.59778,2.40228 -1.85838,2.42908 z"
         style="fill:#794179;fill-opacity:1;stroke:none" />
      <g
         transform="translate(23.535492,-118.06749)"
         id="g4166">
        <path
           style="fill:#794179;fill-opacity:1;stroke:none"
           d="m 419.11339,172.57925 c -4.20243,8.6244 6.3788,13.93157 11.6017,8.92857 3.55758,-3.4078 4.67007,-12.96593 -1.74026,-14.10714 -2.55322,-0.45454 -7.78467,0.91654 -9.86144,5.17857 z"
           id="path3911"
           inkscape:connector-curvature="0"
           sodipodi:nodetypes="ssss" />
        <path
           style="fill:#794179;fill-opacity:1;stroke:none"
           d="m 457.5,172.84448 c 2.98274,-5.96548 -9.11866,-18.53896 -16.42857,-6.24999 -6.91849,11.63093 11.07396,16.95921 16.42857,6.24999 z"
           id="path3913"
           inkscape:connector-curvature="0"
           sodipodi:nodetypes="sss" />
        <path
           style="fill:#794179;fill-opacity:1;stroke:none"
           d="m 467.64197,193.73734 c 12.84577,-8.71635 -12.8634,-19.98788 -13.12668,-5.62501 -0.13028,7.1077 8.8162,8.54984 13.12668,5.62501 z"
           id="path3915"
           inkscape:connector-curvature="0"
           sodipodi:nodetypes="sss" />
        <path
           style="fill:#794179;fill-opacity:1;stroke:none"
           d="m 426.60714,205.70163 c 3.20893,0.91683 8.52699,1.11586 11.07143,-1.42857 11.02654,-11.02655 -18.95373,-21.0802 -15.625,-5.71429 0.64653,2.98448 1.14744,6.16968 4.55357,7.14286 z"
           id="path3917"
           inkscape:connector-curvature="0"
           sodipodi:nodetypes="ssss" />
        <path
           style="fill:#794179;fill-opacity:1;stroke:none"
           d="m 456.33929,204.09448 c -0.74299,6.60085 8.49646,6.54791 11.1782,2.51688 8.04465,-12.09222 -10.72821,-6.5147 -11.1782,-2.51688 z"
           id="path3919"
           inkscape:connector-curvature="0"
           sodipodi:nodetypes="sss" />
        <path
           style="fill:#794179;fill-opacity:1;stroke:none"
           d="m 444.64286,219.27305 c 13.1715,6.58575 2.10276,-19.93797 -0.80358,-6.16072 -1.03798,2.29045 -1.51543,5.00122 0.80358,6.16072 z"
           id="path3921"
           inkscape:connector-curvature="0"
           sodipodi:nodetypes="scs" />
        <path
           style="fill:#794179;fill-opacity:1;stroke:none"
           d="m 467.97278,224.87792 c 1.29021,-7.05868 -6.48548,-17.13728 -9.04421,-0.42629 -1.92902,12.59836 7.90769,6.6442 9.04421,0.42629 z"
           id="path3923"
           inkscape:connector-curvature="0"
           sodipodi:nodetypes="sss" />
        <path
           style="fill:#794179;fill-opacity:1;stroke:none"
           d="m 443.57142,242.30876 c 7.15945,3.16583 9.03577,-1.73085 8.31496,-6.00674 -7.26972,-12.78613 -14.58575,2.83361 -8.31496,6.00674 z"
           id="path3925"
           inkscape:connector-curvature="0"
           sodipodi:nodetypes="ccc" />
        <path
           style="fill:#794179;fill-opacity:1;stroke:none"
           d="m 459.82143,248.38019 c -3.81443,0 -5.44231,3.5365 -3.92857,6.96429 5.23689,11.85872 18.79046,-6.96429 3.92857,-6.96429 z"
           id="path3927"
           inkscape:connector-curvature="0"
           sodipodi:nodetypes="sss" />
        <path
           style="fill:#794179;fill-opacity:1;stroke:none"
           d="m 448.23595,268.34059 c 10.25984,6.83989 -3.95024,-22.37636 -4.48596,-2.3711 0.76915,4.33174 2.50948,1.05344 4.48596,2.3711 z"
           id="path3929"
           inkscape:connector-curvature="0"
           sodipodi:nodetypes="scs" />
        <path
           style="fill:#794179;fill-opacity:1;stroke:none"
           d="m 437.85714,280.70161 c -2.30955,1.38573 -3.92857,4.25099 -2.67857,6.07144 7.7248,16.28919 15.96456,-14.04303 2.67857,-6.07144 z"
           id="path3931"
           inkscape:connector-curvature="0"
           sodipodi:nodetypes="scs" />
        <path
           style="fill:#794179;fill-opacity:1;stroke:none"
           d="m 459.10028,285.38163 c -0.6277,-6.15196 -7.00438,-12.33557 -5.61814,0.76643 1.30601,12.34371 6.23087,5.23876 5.61814,-0.76643 z"
           id="path3933"
           inkscape:connector-curvature="0"
           sodipodi:nodetypes="sss" />
        <path
           style="fill:#794179;fill-opacity:1;stroke:none"
           d="m 447.36475,297.95806 c -3.30942,0.66189 -3.60796,2.89836 -3.43618,5.24357 4.12474,11.30166 18.18426,-8.19318 3.43618,-5.24357 z"
           id="path3935"
           inkscape:connector-curvature="0"
           sodipodi:nodetypes="scs" />
        <path
           style="fill:#794179;fill-opacity:1;stroke:none"
           d="m 433.75,251.05877 c -0.81161,0.21997 -2.97454,1.9431 -2.67857,3.83928 1.60768,10.29978 5.57494,8.06652 7.35847,3.29572 1.70056,-4.54885 1.97589,-8.93893 -4.6799,-7.135 z"
           id="path3937"
           inkscape:connector-curvature="0"
           sodipodi:nodetypes="ssss" />
        <path
           style="fill:#794179;fill-opacity:1;stroke:none"
           d="m 427.5,218.02305 c -3.45986,1.72993 -3.69891,6.35719 -2.41071,8.92857 10.97942,21.91611 15.06264,-15.25453 2.41071,-8.92857 z"
           id="path3939"
           inkscape:connector-curvature="0"
           sodipodi:nodetypes="sss" />
      </g>
      <path
         sodipodi:nodetypes="sssssss"
         inkscape:connector-curvature="0"
         id="path5755"
         d="m 262.36468,256.19112 c -1.07136,-3.20146 9.55368,-0.47152 11.00886,2.92997 0.86648,2.02546 -3.03391,2.23088 -6.80611,0.2411 -2.07236,-1.09332 -3.82484,-2.0419 -4.20275,-3.17107 z m 3.62315,0.83611 c 0.0187,0.50116 0.42917,1.03925 2.159,1.44135 4.11906,0.95748 -2.19998,-2.53764 -2.159,-1.44135 z"
         style="fill:#794179;fill-opacity:1;stroke:none" />
      <path
         sodipodi:nodetypes="sss"
         inkscape:connector-curvature="0"
         id="path5757"
         d="m 357.61631,586.49355 c -9.51724,-3.43583 2.14657,11.74678 2.14657,4.79823 0,-1.9321 -0.37957,-4.16033 -2.14657,-4.79823 z"
         style="fill:#ffffff;fill-opacity:1;stroke:none" />
      <path
         sodipodi:nodetypes="sss"
         inkscape:connector-curvature="0"
         id="path5759"
         d="m 380.09221,592.55447 c -1.58963,1.99525 -0.33033,3.20522 1.01014,4.54568 4.98658,4.98658 8.18159,-16.08292 -1.01014,-4.54568 z"
         style="fill:#ffffff;fill-opacity:1;stroke:none" />
      <path
         sodipodi:nodetypes="sss"
         inkscape:connector-curvature="0"
         id="path5761"
         d="m 415.19501,587.25117 c 5.86919,4.92707 8.25598,-1.04808 6.71278,-2.66046 -1.98443,-2.07343 -11.49975,-1.3581 -6.71278,2.66046 z"
         style="fill:#ffffff;fill-opacity:1;stroke:none" />
      <path
         sodipodi:nodetypes="sss"
         inkscape:connector-curvature="0"
         id="path5763"
         d="m 439.94375,583.96817 c -1.7727,3.2296 2.65436,2.70266 3.30603,1.40049 0.59652,-1.19191 -1.53793,-4.62171 -3.30603,-1.40049 z"
         style="fill:#ffffff;fill-opacity:1;stroke:none" />
      <path
         sodipodi:nodetypes="sss"
         inkscape:connector-curvature="0"
         id="path5767"
         d="m 454.84349,591.54432 c 2.02817,4.84622 7.60276,-2.25954 5.80839,-3.15673 -2.71511,-1.35756 -7.25832,-0.30782 -5.80839,3.15673 z"
         style="fill:#ffffff;fill-opacity:1;stroke:none" />
      <path
         sodipodi:nodetypes="sss"
         inkscape:connector-curvature="0"
         id="path5771"
         d="m 499.54275,584.47325 c -6.60098,0.0685 -7.84454,8.43794 0.25254,6.81853 4.20104,-0.84021 4.23103,-6.86503 -0.25254,-6.81853 z"
         style="fill:#ffffff;fill-opacity:1;stroke:none" />
      <path
         sodipodi:nodetypes="sss"
         inkscape:connector-curvature="0"
         id="path5777"
         d="m 538.9387,590.53416 c 10.92835,2.20845 -1.26269,-11.81392 -1.26269,-3.03045 0,1.63559 -0.40388,2.69366 1.26269,3.03045 z"
         style="fill:#ffffff;fill-opacity:1;stroke:none" />
      <path
         sodipodi:nodetypes="sss"
         inkscape:connector-curvature="0"
         id="path5781"
         d="m 588.68871,590.7867 c 2.24154,0.65339 3.89784,-1.33949 4.29314,-2.52538 3.00762,-9.02285 -14.50811,-0.4522 -4.29314,2.52538 z"
         style="fill:#ffffff;fill-opacity:1;stroke:none" />
      <path
         inkscape:connector-curvature="0"
         id="path5789"
         d="m 176.29392,393.80695 c -8.33123,4.64556 -7.57194,29.53646 0.50508,9.34392 1.54409,-3.86023 1.83866,-6.41424 -0.50508,-9.34392 z"
         style="fill:#fbf5fb;fill-opacity:1;stroke:none" />
      <path
         sodipodi:nodetypes="csc"
         inkscape:connector-curvature="0"
         id="path5791"
         d="m 191.95798,299.27148 c -7.28538,1.03719 -8.67498,23.92938 5.29047,27.77336 3.10093,0.85353 -3.32171,-21.94502 -5.29047,-27.77336 z"
         style="fill:#fbf5fb;fill-opacity:1;stroke:none" />
      <path
         inkscape:connector-curvature="0"
         id="path5793"
         d="m 272.25842,308.19653 c -1.08852,2.9478 2.16069,5.15505 4.32379,6.76251 10.77539,8.00747 4.00094,-7.66922 -4.32379,-6.76251 z"
         style="fill:#fbf5fb;fill-opacity:1;stroke:none"
         sodipodi:nodetypes="csc" />
      <path
         sodipodi:nodetypes="sss"
         inkscape:connector-curvature="0"
         id="path5797"
         d="m 212.53315,163.87098 c -2.6895,-1.64833 -3.40927,3.77626 -3.40927,6.69226 0,10.13748 6.47426,-4.81381 3.40927,-6.69226 z"
         style="fill:#fbf5fb;fill-opacity:1;stroke:none" />
      <path
         sodipodi:nodetypes="cssc"
         inkscape:connector-curvature="0"
         id="path5799"
         d="m 333.62518,178.39192 c -0.32765,0.0743 7.75493,-2.33139 9.81727,-2.7103 2.73455,-0.50241 15.49347,-0.43384 10.63833,-3.85569 -5.79314,-4.08295 -17.78779,-0.52906 -20.45559,6.56599 z"
         style="fill:#ffffff;fill-opacity:1;stroke:none" />
      <path
         inkscape:connector-curvature="0"
         id="path5801"
         d="m 257.61122,417.79808 c 37.34271,5.39262 8.78879,-10.98601 0,0 z"
         style="fill:#fbf5fb;fill-opacity:1;stroke:none" />
      <path
         inkscape:connector-curvature="0"
         id="path5803"
         d="m 297.00715,531.44024 c -5.76777,-1.5946 -15.27751,16.28975 -10.85914,20.70813 4.30005,4.30004 10.85914,-18.67048 10.85914,-20.70813 z"
         style="fill:#fbf5fb;fill-opacity:1;stroke:none" />
      <path
         sodipodi:nodetypes="cc"
         inkscape:connector-curvature="0"
         id="path5805"
         d="m 677.85716,459.18195 c 36.69038,-7.55395 -2.13298,-16.82946 0,0 z"
         style="fill:#ffffff;fill-opacity:1;stroke:none" />
      <path
         sodipodi:nodetypes="cscc"
         inkscape:connector-curvature="0"
         id="path5807"
         d="m 597.42079,516.71785 c 6.25908,-1.40599 31.72767,3.65646 34.36494,2.4641 2.18895,-0.98968 -6.9031,-5.58684 -7.0562,-5.6889 -11.56685,-7.71123 -21.06985,-3.01408 -27.30874,3.2248 z"
         style="fill:#ffffff;fill-opacity:1;stroke:none" />
      <path
         sodipodi:nodetypes="sss"
         inkscape:connector-curvature="0"
         id="path5809"
         d="m 476.81431,31.162189 c -12.92234,-4.241258 10.45378,17.421852 6.31345,7.071068 -1.40046,-3.501144 -3.30919,-6.085038 -6.31345,-7.071068 z"
         style="fill:#ffffff;fill-opacity:1;stroke:none" />
      <path
         sodipodi:nodetypes="sss"
         inkscape:connector-curvature="0"
         id="path5811"
         d="m 509.74256,119.03624 c -0.44002,-1.83861 -2.89126,-1.30895 -2.93934,6.44894 -0.0407,6.57075 3.69631,-3.28584 2.93934,-6.44894 z"
         style="fill:#ffffff;fill-opacity:1;stroke:none" />
      <path
         sodipodi:nodetypes="csc"
         inkscape:connector-curvature="0"
         id="path5813"
         d="m 713.44256,256.67874 c 0.70412,3.80912 26.95536,7.76247 24.24365,-0.50508 -1.79164,-5.46241 -25.35575,-2.8312 -24.24365,0.50508 z"
         style="fill:#ffffff;fill-opacity:1;stroke:none" />
      <path
         sodipodi:nodetypes="sss"
         inkscape:connector-curvature="0"
         id="path5815"
         d="m 733.6456,387.99858 c -1.71804,-0.25746 1.75133,8.19927 4.54569,9.59645 12.16278,6.08139 0.67952,-8.81343 -4.54569,-9.59645 z"
         style="fill:#ffffff;fill-opacity:1;stroke:none" />
      <path
         inkscape:connector-curvature="0"
         id="path5817"
         d="m 777.33469,420.32346 c -16.25316,5.48132 0,15.29593 0,0 z"
         style="fill:#ffffff;fill-opacity:1;stroke:none" />
      <path
         sodipodi:nodetypes="csc"
         inkscape:connector-curvature="0"
         id="path5819"
         d="m 722.53393,549.37044 c 2.49371,0.27753 15.69886,-0.64033 13.8896,-3.28299 -3.74571,-5.47108 -19.61542,3.28299 -13.8896,3.28299 z"
         style="fill:#ffffff;fill-opacity:1;stroke:none" />
    </g>
  </g>
</svg>
